<?xml version="1.0" standalone="no"?>
<!DOCTYPE svg PUBLIC "-//W3C//DTD SVG 1.1//EN" "http://www.w3.org/Graphics/SVG/1.1/DTD/svg11.dtd" >
<!--
2013-9-30: Created.
-->
<svg>
<metadata>
Created by iconfont
</metadata>
<defs>

<font id="iconfont" horiz-adv-x="1024" >
  <font-face
    font-family="iconfont"
    font-weight="500"
    font-stretch="normal"
    units-per-em="1024"
    ascent="896"
    descent="-128"
  />
    <missing-glyph />
    
    <glyph glyph-name="share" unicode="&#58903;" d="M852.053 863.22c-85.937 0-155.605-67.505-155.605-150.775 0-9.475 0.912-18.74 2.638-27.732l-416.33-202.798c-28.469 30.459-69.607 49.594-115.357 49.594-85.941 0-155.599-67.505-155.599-150.776s69.657-150.776 155.599-150.776c44.653 0 84.913 18.233 113.293 47.436l246.369-159.153c-11.072-20.732-17.333-44.264-17.333-69.217 0-83.265 69.663-150.777 155.599-150.777 85.94 0 155.603 67.512 155.603 150.777 0 83.273-69.662 150.779-155.603 150.779-44.658 0-84.913-18.233-113.294-47.436l-246.369 159.152c11.076 20.727 17.338 44.261 17.338 69.215 0 24.243-5.912 47.142-16.405 67.44l406.26 196.826c25.552-49.412 78.276-83.336 139.194-83.336 85.939 0 155.605 67.506 155.605 150.78 0 83.271-69.665 150.777-155.603 150.777l0 0zM665.328 140.954c56.333 0 95.794-41.618 95.794-91.93 0-55.473-44.904-91.933-95.794-91.933-51.008 0-95.788 38.055-95.788 91.933-0.001 54.981 44.001 91.93 95.788 91.93l0 0zM167.399 289.993c-54.769 0-94.597 39.743-94.597 90.742 0 51.145 38.587 90.736 94.597 90.736 55.446 0 94.592-39.899 94.592-90.736 0-48.825-43.803-90.742-94.592-90.742l0 0zM852.053 620.508c-52.864 0-95.788 38.981-95.788 91.937 0 47.455 33.362 91.931 95.788 91.931 57.708 0 95.792-40.889 95.792-91.931 0.001-48.773-43.464-91.937-95.792-91.937l0 0z"  horiz-adv-x="1024" />

    
    <glyph glyph-name="riliriqi" unicode="&#59399;" d="M480 256l64 0C561.92 256 576 270.08 576 288S561.92 320 544 320l-64 0C462.08 320 448 305.92 448 288S462.08 256 480 256zM480 128l64 0C561.92 128 576 142.08 576 160 576 177.92 561.92 192 544 192l-64 0C462.08 192 448 177.92 448 160 448 142.08 462.08 128 480 128zM832 704l-128 0L704 736C704 753.92 689.92 768 672 768 654.08 768 640 753.92 640 736L640 704 384 704 384 736C384 753.92 369.92 768 352 768S320 753.92 320 736L320 704 192 704C121.6 704 64 646.4 64 576l0-512c0-70.4 57.6-128 128-128l640 0c70.4 0 128 57.6 128 128L960 576C960 646.4 902.4 704 832 704zM896 64c0-35.2-28.8-64-64-64L192 0c-35.2 0-64 28.8-64 64L128 448l768 0L896 64zM896 512 128 512 128 576c0 35.2 28.8 64 64 64l128 0 0-32C320 590.08 334.08 576 352 576S384 590.08 384 608L384 640l256 0 0-32C640 590.08 654.08 576 672 576 689.92 576 704 590.08 704 608L704 640l128 0c35.2 0 64-28.8 64-64L896 512zM288 128l64 0C369.92 128 384 142.08 384 160 384 177.92 369.92 192 352 192l-64 0C270.08 192 256 177.92 256 160 256 142.08 270.08 128 288 128zM672 256l64 0c17.92 0 32 14.08 32 32S753.92 320 736 320l-64 0C654.08 320 640 305.92 640 288S654.08 256 672 256zM288 256l64 0C369.92 256 384 270.08 384 288S369.92 320 352 320l-64 0C270.08 320 256 305.92 256 288S270.08 256 288 256zM672 128l64 0c17.92 0 32 14.08 32 32 0 17.92-14.08 32-32 32l-64 0c-17.92 0-32-14.08-32-32C640 142.08 654.08 128 672 128z"  horiz-adv-x="1024" />

    
    <glyph glyph-name="icon" unicode="&#42598;" d="M390.286937 613.0200199999999c-17.247826 0-31.233352-13.984503-31.233352-31.233352l0-30.464849c0-17.252943 13.984503-31.233352 31.233352-31.233352s31.233352 13.979386 31.233352 31.233352l0 30.464849C421.520289 599.035518 407.535787 613.0200199999999 390.286937 613.0200199999999zM634.05587 613.0200199999999c-17.247826 0-31.233352-13.984503-31.233352-31.233352l0-30.464849c0-17.252943 13.984503-31.233352 31.233352-31.233352s31.233352 13.979386 31.233352 31.233352l0 30.464849C665.289222 599.035518 651.304719 613.0200199999999 634.05587 613.0200199999999zM588.963882 471.968517c-14.544251 9.31311-33.845853 5.063319-43.148729-9.455349-0.121773-0.193405-13.379729-19.449981-33.967626-19.449981-19.993357 0-32.42755 18.107403-33.271778 19.368116-9.17087 14.436804-28.279067 18.809391-42.828434 9.760295-14.655791-9.099239-19.154245-28.355815-10.04989-43.00649 11.209296-18.046005 41.973974-48.587602 86.150102-48.587602 43.957141 0 75.098395 30.308283 86.571704 48.222281C607.722108 443.347666 603.487667 462.665641 588.963882 471.968517zM747.869009 768.884904c19.652596-0.071631 36.489052-7.060813 54.149271-22.276353 12.988826-12.057617 23.831778-33.672914 31.360242-62.501496 8.04728-30.800493 12.062733-68.098981 11.94096-111.028723 0.061398-23.414269-1.12359-48.700165-3.523243-75.144444-1.555425-17.182334 11.101849-32.371268 28.284183-33.927717 0.960885-0.091074 1.911536-0.132006 2.857071-0.132006 15.977903 0 29.596062 12.190647 31.070646 28.40698 2.572592 28.376281 3.843538 55.613622 3.777023 80.786954 0.14224 48.145533-4.559852 90.816378-13.964036 126.82857-10.69048 40.916898-27.273157 72.033593-49.757241 92.911086-0.132006 0.116657-0.681522 0.604774-0.813528 0.716314-29.382191 25.330922-60.509119 37.70474-94.634334 37.821397l-2.074242 0.020466c-48.369637 0-92.885504-25.417903-140.268674-52.472072-26.560936-15.164375-54.032614-30.841426-80.954777-40.810474-7.940856-2.857071-15.774265-4.306072-23.140023-4.306072-27.227108 0.121773-52.039213 17.314341-81.117482 37.465287l-4.946662 3.420913c-41.180911 28.670993-79.337953 52.405557-129.466654 52.405557-6.231935 0-12.175297-0.60989-17.415648-1.149173l-3.598968-0.361227c-72.984245-7.024997-122.344442-53.529147-138.987494-130.945331-10.090822-46.961568-10.090822-112.883977-10.090822-152.260799-0.005117-16.09456 0.431835-32.523741 1.301645-48.811706 0.914836-17.2335 15.692401-30.440289 32.849152-29.534663 17.223267 0.925069 30.445406 15.626909 29.52443 32.849152-0.808412 15.189957-1.214664 30.490431-1.209548 45.486984 0 36.906561 0 98.670254 8.698103 139.145084 11.051707 51.424206 37.71395 77.446883 83.897805 81.890079l4.001127 0.401136c4.112668 0.421602 8.001231 0.823761 11.224646 0.823761 31.9292 0 58.928111-17.075911 93.719498-41.298592l5.272074-3.65525c34.150798-23.663956 69.466118-48.125067 116.203582-48.338938 14.736633 0 29.683043 2.689249 44.699038 8.093329 32.011064 11.849886 61.749366 28.823466 90.766236 45.390793 39.727817 22.682605 77.248362 44.104497 109.040439 44.104497M865.281115 412.348652c-16.932648 3.213181-33.316803-7.818059-36.576033-24.76708-8.169053-42.417065-18.615986-84.793198-31.05018-125.95876-3.1569-10.462283-6.420223-21.502733-9.790994-32.94125-16.312524-55.257511-34.801621-117.885897-56.797587-165.813466-29.494755-64.255443-48.227398-64.570621-50.362015-64.346517-29.875424 2.745531-54.393841 86.175685-69.049632 136.024-11.372002 38.705534-21.197788 72.124667-35.269271 92.65219-26.703175 38.960337-71.448262 44.145429-101.857852 29.169343-49.198515-24.248264-70.004377-73.863265-88.361467-117.632117-2.785439-6.649444-5.551436-13.237489-8.458649-19.815301l-2.699482-6.212492c-9.378601-21.564132-18.234293-41.939181-26.738991-55.461149-7.990998-12.67774-12.119015-14.447037-12.129248-14.508435-0.010233 0-1.046842 0.061398-4.356214 1.63729-14.56881 6.466272-56.600089 64.062038-92.347245 173.905772-19.912515 59.85318-34.20708 115.079992-43.712571 168.833243-3.004427 16.978696-19.195178 28.294416-36.19434 25.315572-16.983813-2.99931-28.319999-19.205411-25.315572-36.19434 10.039657-56.782238 25.066909-114.89682 45.889143-177.485297 28.574802-87.801718 76.765361-189.462073 125.475759-211.076346 10.181897-4.89038 20.425192-7.381108 30.826076-7.401574 37.19104 0 57.905828 32.869618 64.733327 43.697221 11.036357 17.558911 20.806885 40.037878 31.151487 63.818491l2.622734 6.039553c2.99931 6.771217 5.916756 13.735839 8.860808 20.750603 15.494902 36.94647 30.125111 71.840188 58.378595 85.768409 0.529049 0.243547 12.744255 6.069229 22.718421-8.468882 8.458649-12.343119 17.812691-44.164872 26.855648-74.940806 23.968901-81.559551 51.139727-173.997869 123.279744-180.616614 2.343371-0.213871 4.6366-0.325411 6.918573-0.325411 84.665285 0.020466 127.738289 145.895835 165.849282 275.006378 3.334955 11.305487 6.557346 22.225187 9.68457 32.564673 13.049201 43.210128 24.009833 87.690178 32.585139 132.200928C893.306402 392.706289 882.21888 409.085328 865.281115 412.348652z"  horiz-adv-x="1024" />

    
    <glyph glyph-name="wogoumaidexinxi" unicode="&#59039;" d="M859.327008 208.923566l1.901303-0.10847 0 84.630493 0.055259 0L861.28357 749.155561c0 44.13622-39.732933 80.010265-88.490404 80.010265L226.420311 829.165826c-48.810682 0-88.490404-35.875069-88.490404-80.010265l0-442.011996-0.10847 0 0-233.073336c0-44.13622 39.788192-80.010265 88.543615-80.010265l354.447684 0c32.340569-33.80799 77.618798-55.224766 127.951137-55.224766 97.838306 0 177.413666 79.629595 177.413666 177.414689C886.17754 150.329053 876.013039 181.910329 859.327008 208.923566zM226.365052 49.718611c-17.828041 0-32.884968 11.143805-32.884968 24.351618L193.480085 293.445588l0.10847 0L193.588555 749.155561c0 13.207813 15.001669 24.351618 32.830733 24.351618l546.373879 0c17.829064 0 32.830733-11.143805 32.830733-24.351618l0-442.011996-0.055259 0 0-42.614563c-27.884071 18.262946-61.039191 29.025057-96.80579 29.025057-97.729835 0-177.305195-79.521125-177.305195-177.305195 0-23.536043 4.891404-45.930075 13.262048-66.531276L226.365052 49.717587zM708.763874-5.506155c-67.073628 0-121.646548 54.68139-121.646548 121.755018 0 67.073628 54.57292 121.645524 121.646548 121.645524 67.127863 0 121.753995-54.571896 121.753995-121.645524C830.518892 49.175235 775.891737-5.506155 708.763874-5.506155zM769.641383 110.921531c5.979178 0 10.870582 4.838192 10.870582 10.871605 0 5.979178-4.891404 10.870582-10.870582 10.870582l-48.539506 0 39.787168 41.744753c4.131087 4.348028 3.968381 11.305487-0.379647 15.436574-4.293793 4.131087-11.197016 3.967358-15.382339-0.434905l-34.841529-36.58115-35.602869 34.732036c-4.293793 4.240581-11.142781 4.131087-15.381315-0.216941-4.186346-4.293793-4.131087-11.197016 0.216941-15.382339l40.331567-39.298028-49.354058 0c-5.979178 0-10.870582-4.891404-10.870582-10.870582 0-6.033413 4.891404-10.871605 10.870582-10.871605l48.702212 0 0-17.393135-48.702212 0c-5.979178 0-10.870582-4.891404-10.870582-10.870582 0-6.033413 4.891404-10.871605 10.870582-10.871605l48.702212 0 0-40.440038c0-6.033413 4.891404-10.870582 10.870582-10.870582s10.871605 4.837168 10.871605 10.870582l0 40.440038 48.702212 0c5.979178 0 10.870582 4.838192 10.870582 10.871605 0 5.979178-4.891404 10.870582-10.870582 10.870582l-48.702212 0 0 17.393135L769.641383 110.921531zM412.584268 439.605436l278.296307 0c15.382339 0 27.829835 12.447497 27.829835 27.828812 0 15.382339-12.447497 27.829835-27.829835 27.829835L412.584268 495.264083c-15.382339 0-27.828812-12.447497-27.828812-27.829835C384.755456 452.052932 397.201929 439.605436 412.584268 439.605436zM412.584268 606.583424l278.296307 0c15.382339 0 27.829835 12.447497 27.829835 27.828812 0 15.382339-12.447497 27.829835-27.829835 27.829835L412.584268 662.242072c-15.382339 0-27.828812-12.447497-27.828812-27.829835C384.755456 619.030921 397.201929 606.583424 412.584268 606.583424zM301.26595 328.287117c-15.382339 0-27.829835-12.446473-27.829835-27.828812s12.447497-27.829835 27.829835-27.829835 27.828812 12.447497 27.828812 27.829835S316.648288 328.287117 301.26595 328.287117zM301.26595 662.242072c-15.382339 0-27.829835-12.447497-27.829835-27.829835 0-15.381315 12.447497-27.828812 27.829835-27.828812s27.828812 12.447497 27.828812 27.828812C329.095785 649.794575 316.648288 662.242072 301.26595 662.242072zM301.26595 495.264083c-15.382339 0-27.829835-12.447497-27.829835-27.829835 0-15.381315 12.447497-27.828812 27.829835-27.828812s27.828812 12.447497 27.828812 27.828812C329.095785 482.816586 316.648288 495.264083 301.26595 495.264083zM551.733445 300.457282c0 15.382339-12.447497 27.828812-27.829835 27.828812L412.584268 328.286094c-15.382339 0-27.828812-12.446473-27.828812-27.828812s12.446473-27.829835 27.828812-27.829835l111.318318 0C539.285948 272.627447 551.733445 285.074943 551.733445 300.457282z"  horiz-adv-x="1024" />

    
    <glyph glyph-name="cshy-shizhong" unicode="&#58918;" d="M516.066 770.157c-215.83 0-391.404-176.461-391.404-393.382 0-216.917 175.573-389.423 391.404-389.423 215.826 0 391.401 172.507 391.401 389.423 0 216.922-175.572 393.382-391.401 393.382zM516.065 27.575c-193.951 0-351.179 157.229-351.179 351.179s157.229 351.181 351.179 351.181 351.181-157.229 351.181-351.181-157.229-351.179-351.181-351.179zM665.661 387.771h-153.474v233.372c0 10.413-8.441 18.854-18.855 18.854-10.413 0-18.854-8.441-18.854-18.854v-249.525c-0.128-0.884-0.215-1.782-0.215-2.701 0-6.586 3.382-12.375 8.498-15.748 3.015-2.046 6.654-3.243 10.572-3.243 0.737 0 1.46 0.053 2.173 0.135h170.155c10.413 0 18.855 8.442 18.855 18.855 0.001 10.413-8.442 18.854-18.855 18.854z"  horiz-adv-x="1024" />

    
    <glyph glyph-name="riqi" unicode="&#59049;" d="M823.206 804.997V863.394c0 16.982-13.767 30.749-30.748 30.749-16.982 0-30.749-13.767-30.749-30.749v-58.396H283.233V863.394c0 16.982-13.767 30.749-30.748 30.749-16.982 0-30.749-13.767-30.749-30.749v-58.396H10.918V-128H1024V804.997H823.206zM962-66H72.918V526.964H962V-66z m0 632.454H72.918V742.997h148.818v-58.396c0-16.982 13.767-30.749 30.749-30.749 16.981 0 30.748 13.767 30.748 30.749v58.396h478.476v-58.396c0-16.982 13.767-30.749 30.749-30.749 16.981 0 30.748 13.767 30.748 30.749v58.396H962v-176.543zM214.034 363.099m-23.957 0a23.957 23.957 0 1 1 47.914 0 23.957 23.957 0 1 1-47.914 0ZM365.632 363.099m-23.957 0a23.957 23.957 0 1 1 47.914 0 23.957 23.957 0 1 1-47.914 0ZM517.23 363.099m-23.957 0a23.957 23.957 0 1 1 47.914 0 23.957 23.957 0 1 1-47.914 0ZM668.829 363.099m-40.456 0a40.456 40.456 0 1 1 80.912 0 40.456 40.456 0 1 1-80.912 0ZM820.987 363.099m-23.957 0a23.957 23.957 0 1 1 47.914 0 23.957 23.957 0 1 1-47.914 0ZM214.034 220.652m-23.957 0a23.957 23.957 0 1 1 47.914 0 23.957 23.957 0 1 1-47.914 0ZM365.632 220.652m-23.957 0a23.957 23.957 0 1 1 47.914 0 23.957 23.957 0 1 1-47.914 0ZM214.034 89.5m-23.957 0a23.957 23.957 0 1 1 47.914 0 23.957 23.957 0 1 1-47.914 0ZM365.632 89.5m-23.957 0a23.957 23.957 0 1 1 47.914 0 23.957 23.957 0 1 1-47.914 0ZM517.23 220.652m-23.957 0a23.957 23.957 0 1 1 47.914 0 23.957 23.957 0 1 1-47.914 0ZM668.827 220.652m-23.957 0a23.957 23.957 0 1 1 47.914 0 23.957 23.957 0 1 1-47.914 0ZM820.987 220.652m-23.957 0a23.957 23.957 0 1 1 47.914 0 23.957 23.957 0 1 1-47.914 0Z"  horiz-adv-x="1024" />

    
    <glyph glyph-name="kouqiangbaojian" unicode="&#42498;" d="M793.037 24.071000000000026s-49.377 138.4-7.396 278.573 129.699 395.452 36.978 463.469c-24.455 16.937-85.716 22.236-145.45 4.93-49.45-15.014-119.123-32.048-160.241-32.048s-106.747 24.406-155.309 41.908-132.802 16.148-165.171-14.794-61.311-65.7-46.841-167.636 63.503-187.852 91.216-266.246 31.21-187.482 29.581-209.548 13.926-127.086 61.633-135.59 68.806 73.811 78.887 103.542c24.925 73.466 67.942 111.553 120.8 110.935s92.818-36.607 125.728-98.61 88.822-109.826 123.262-130.658c8.677-5.918 18.443-35.424-34.513-59.168-30.569-13.313-98.241 8.654-115.867 96.146s-64.466 152.081-113.402 150.38c-23.569-1.7-40.16-4.637-69.027-66.561-16.963-36.388-30.398-185.241-106.004-192.287s-107.114 107.235-106.004 226.804-96.933 296.717-125.728 345.136c-38.185 64.221-75.808 248.889 27.117 342.67 38.581 34.687 77.678 57.615 140.521 56.7s103.441-12.768 140.521-29.581 64.319-29.581 96.146-29.581 124.739 56.7 241.595 56.7 179.717-49.281 192.287-179.965c12.447-129.475-72.037-317.746-108.473-401.837s-35.895-304.877-46.841-263.781zM325.033 634.078s-15.184-111.847 24.013-218.101c39.172-106.228 111.059-174.958 160.883-174.958s141.825 75.634 170.473 167.787c28.649 92.127 28.818 230.082 28.818 230.082s-93.754 33.553-199.291 33.553c-105.561 0-184.897-38.359-184.897-38.359zM315.321 641.963s-15.951-117.595 25.221-229.317c41.195-111.703 116.729-183.956 169.091-183.956s149.05 79.532 179.175 176.414c30.099 96.859 30.273 241.916 30.273 241.916s-98.535 35.278-209.446 35.278c-110.935 0-194.311-40.329-194.311-40.329zM509.634 228.69100000000003c52.363 0 149.05 79.532 179.175 176.414 30.099 96.859 30.273 241.916 30.273 241.916s-98.535 35.278-209.446 35.278v-453.605zM513.231 586.15c64.665 0 117.097-52.435 117.097-117.097s-52.435-117.097-117.097-117.097-117.097 52.435-117.097 117.097 52.435 117.097 117.097 117.097zM593.354 445.633h-61.633v-59.168h-41.908v59.168h-59.168v41.908h59.168v61.633h41.908v-61.633h61.633z"  horiz-adv-x="1024" />

    
    <glyph glyph-name="kouqiangmeirong" unicode="&#42499;" d="M793.037 24.071000000000026s-49.377 138.4-7.396 278.573 129.699 395.452 36.978 463.469c-24.455 16.937-85.716 22.236-145.45 4.93-49.45-15.014-119.123-32.048-160.241-32.048s-106.747 24.406-155.309 41.908-132.802 16.148-165.171-14.794-61.311-65.7-46.841-167.636 63.503-187.852 91.216-266.246 31.21-187.482 29.581-209.548 13.926-127.086 61.633-135.59 68.806 73.811 78.887 103.542c24.925 73.466 67.942 111.553 120.8 110.935s92.818-36.607 125.728-98.61 88.822-109.826 123.262-130.658c8.677-5.918 18.443-35.424-34.513-59.168-30.569-13.313-98.241 8.654-115.867 96.146s-64.466 152.081-113.402 150.38c-23.569-1.7-40.16-4.637-69.027-66.561-16.963-36.388-30.398-185.241-106.004-192.287s-107.114 107.235-106.004 226.804-96.933 296.717-125.728 345.136c-38.185 64.221-75.808 248.889 27.117 342.67 38.581 34.687 77.678 57.615 140.521 56.7s103.441-12.768 140.521-29.581 64.319-29.581 96.146-29.581 124.739 56.7 241.595 56.7 179.717-49.281 192.287-179.965c12.447-129.475-72.037-317.746-108.473-401.837s-35.895-304.877-46.841-263.781zM479.952 655.177s-27.732-147.423-157.774-162.706c129.725-12.227 162.706-160.241 162.706-160.241s35.969 151.245 155.309 157.774c-126.788 15.903-160.241 165.171-160.241 165.171zM703.649 766.112s-14.177-76.525-80.714-84.462c66.366-6.336 83.251-83.177 83.251-83.177s18.39 78.494 79.456 81.895c-64.886 8.259-81.995 85.743-81.995 85.743zM789.935 645.321s-14.62-77.654-83.177-85.692c68.386-6.434 85.766-84.411 85.766-84.411s18.957 79.654 81.871 83.103c-66.834 8.382-84.462 86.999-84.462 86.999z"  horiz-adv-x="1024" />

    
    <glyph glyph-name="kouqiangneike" unicode="&#42500;" d="M793.037 24.071000000000026s-49.377 138.4-7.396 278.573 129.699 395.452 36.978 463.469c-24.455 16.937-85.716 22.236-145.45 4.93-49.45-15.014-119.123-32.048-160.241-32.048s-106.747 24.406-155.309 41.908-132.802 16.148-165.171-14.794-61.311-65.7-46.841-167.636 63.503-187.852 91.216-266.246 31.21-187.482 29.581-209.548 13.926-127.086 61.633-135.59 68.806 73.811 78.887 103.542c24.925 73.466 67.942 111.553 120.8 110.935s92.818-36.607 125.728-98.61 88.822-109.826 123.262-130.658c8.677-5.918 18.443-35.424-34.513-59.168-30.569-13.313-98.241 8.654-115.867 96.146s-64.466 152.081-113.402 150.38c-23.569-1.7-40.16-4.637-69.027-66.561-16.963-36.388-30.398-185.241-106.004-192.287s-107.114 107.235-106.004 226.804-96.933 296.717-125.728 345.136c-38.185 64.221-75.808 248.889 27.117 342.67 38.581 34.687 77.678 57.615 140.521 56.7s103.441-12.768 140.521-29.581 64.319-29.581 96.146-29.581 124.739 56.7 241.595 56.7 179.717-49.281 192.287-179.965c12.447-129.475-72.037-317.746-108.473-401.837s-35.895-304.877-46.841-263.781zM578.438 298.457s4.93 22.041 19.844 31.311c14.398 8.925 38.804 5.101 38.804 5.101l109.211-175.946-58.651-36.413-109.211 175.946zM479.902 297.66700000000003s-4.908 21.916-19.794 31.135c-14.374 8.877-38.754 5.056-38.754 5.056l-109.06-174.982 58.549-36.191 109.06 174.982zM447.903 330.332l151.318 244.381s13.83 17.503 25.517 23.863c27.342 16.64 42.055 5.447 45.042 19.625s-6.361 34.141-12.326 46.841-15.508 21.62-4.93 27.117c8.306 2.784 16.963-9.983 22.187-24.652s15.063-36.902 12.102-61.038c-2.366-12.227-21.844-13.435-30.125-13.854-17.455-2.59-31.26-11.907-50.832-42.77s-140.991-229.934-140.991-229.934l-16.963 10.43zM431.882 575.5509999999999l16.617 10.602 229.466-359.508-16.64-10.602zM413.39 669.971c25.858 0 46.841-20.979 46.841-46.841s-20.979-46.841-46.841-46.841-46.841 20.979-46.841 46.841 20.979 46.841 46.841 46.841zM414.621 687.2280000000001c36.092 0 65.329-29.237 65.329-65.329s-29.237-65.329-65.329-65.329-65.329 29.237-65.329 65.329 29.237 65.329 65.329 65.329z"  horiz-adv-x="1024" />

    
    <glyph glyph-name="kouqiangwaike" unicode="&#42501;" d="M793.037 24.071000000000026s-49.377 138.4-7.396 278.573 129.699 395.452 36.978 463.469c-24.455 16.937-85.716 22.236-145.45 4.93-49.45-15.014-119.123-32.048-160.241-32.048s-106.747 24.406-155.309 41.908-132.802 16.148-165.171-14.794-61.311-65.7-46.841-167.636 63.503-187.852 91.216-266.246 31.21-187.482 29.581-209.548 13.926-127.086 61.633-135.59 68.806 73.811 78.887 103.542c24.925 73.466 67.942 111.553 120.8 110.935s92.818-36.607 125.728-98.61 88.822-109.826 123.262-130.658c8.677-5.918 18.443-35.424-34.513-59.168-30.569-13.313-98.241 8.654-115.867 96.146s-64.466 152.081-113.402 150.38c-23.569-1.7-40.16-4.637-69.027-66.561-16.963-36.388-30.398-185.241-106.004-192.287s-107.114 107.235-106.004 226.804-96.933 296.717-125.728 345.136c-38.185 64.221-75.808 248.889 27.117 342.67 38.581 34.687 77.678 57.615 140.521 56.7s103.441-12.768 140.521-29.581 64.319-29.581 96.146-29.581 124.739 56.7 241.595 56.7 179.717-49.281 192.287-179.965c12.447-129.475-72.037-317.746-108.473-401.837s-35.895-304.877-46.841-263.781zM513.231 559.034c11.561 0 20.957-7.716 20.957-17.258s-9.392-17.258-20.957-17.258-20.957 7.716-20.957 17.258 9.392 17.258 20.957 17.258zM513.231 608.3399999999999c44.251 0 80.118-30.348 80.118-67.794s-35.87-67.794-80.118-67.794-80.118 30.348-80.118 67.794 35.87 67.794 80.118 67.794zM534.187 692.158s39.443-8.159 39.443-22.187v-98.61h-39.443v120.8zM492.276 692.158s-39.443-8.159-39.443-22.187v-98.61h39.443v120.8zM457.765 494.935s-51.35-45.68-81.354-103.542-70.138-146.239-27.117-160.241c17.428-4.908 47.135 1.506 51.773 27.117s48.122 154.006 120.8 219.407c-23.026 18.293-64.097 17.258-64.097 17.258zM585.511 480.343s47.433-51.078 67.723-89.958c30.15-57.835 70.457-146.142 27.241-160.167-17.529-4.908-47.383 1.506-52.016 27.117-4.043 22.187-37.399 121.514-93.754 190.17-1.877 3.131 1.628 16.048 19.203 25.246s31.604 7.593 31.604 7.593z"  horiz-adv-x="1024" />

    
    <glyph glyph-name="kouqiangxiufu" unicode="&#42502;" d="M793.037 24.071000000000026s-49.377 138.4-7.396 278.573 129.699 395.452 36.978 463.469c-24.455 16.937-85.716 22.236-145.45 4.93-49.45-15.014-119.123-32.048-160.241-32.048s-106.747 24.406-155.309 41.908-132.802 16.148-165.171-14.794-61.311-65.7-46.841-167.636 63.503-187.852 91.216-266.246 31.21-187.482 29.581-209.548 13.926-127.086 61.633-135.59 68.806 73.811 78.887 103.542c24.925 73.466 67.942 111.553 120.8 110.935s92.818-36.607 125.728-98.61 88.822-109.826 123.262-130.658c8.677-5.918 18.443-35.424-34.513-59.168-30.569-13.313-98.241 8.654-115.867 96.146s-64.466 152.081-113.402 150.38c-23.569-1.7-40.16-4.637-69.027-66.561-16.963-36.388-30.398-185.241-106.004-192.287s-107.114 107.235-106.004 226.804-96.933 296.717-125.728 345.136c-38.185 64.221-75.808 248.889 27.117 342.67 38.581 34.687 77.678 57.615 140.521 56.7s103.441-12.768 140.521-29.581 64.319-29.581 96.146-29.581 124.739 56.7 241.595 56.7 179.717-49.281 192.287-179.965c12.447-129.475-72.037-317.746-108.473-401.837s-35.895-304.877-46.841-263.781zM476.943 461.705l83.667 83.667 196.998-196.998s25.443-30.323-13.955-69.717-69.717-13.955-69.717-13.955l-196.998 196.998zM442.626 679.809l84.191-83.401-97.5-95.849s-30.517-25.365-70.161 13.904-14.026 69.498-14.026 69.498l97.5 95.849zM375.426 551.636l20.708-20.734-88.035-88.109s-7.172-6.629-17.278 3.452c-10.083 10.106-3.452 17.278-3.452 17.278l88.059 88.109zM553.946 536.23l-68.435-68.435-22.825 22.829 68.435 68.432zM802.964 236.75l-15.508-15.508-58.549 58.549 15.508 15.508z"  horiz-adv-x="1024" />

    
    <glyph glyph-name="kouqiangzhengji" unicode="&#42503;" d="M793.037 24.071000000000026s-49.377 138.4-7.396 278.573 129.699 395.452 36.978 463.469c-24.455 16.937-85.716 22.236-145.45 4.93-49.45-15.014-119.123-32.048-160.241-32.048s-106.747 24.406-155.309 41.908-132.802 16.148-165.171-14.794-61.311-65.7-46.841-167.636 63.503-187.852 91.216-266.246 31.21-187.482 29.581-209.548 13.926-127.086 61.633-135.59 68.806 73.811 78.887 103.542c24.925 73.466 67.942 111.553 120.8 110.935s92.818-36.607 125.728-98.61 88.822-109.826 123.262-130.658c8.677-5.918 18.443-35.424-34.513-59.168-30.569-13.313-98.241 8.654-115.867 96.146s-64.466 152.081-113.402 150.38c-23.569-1.7-40.16-4.637-69.027-66.561-16.963-36.388-30.398-185.241-106.004-192.287s-107.114 107.235-106.004 226.804-96.933 296.717-125.728 345.136c-38.185 64.221-75.808 248.889 27.117 342.67 38.581 34.687 77.678 57.615 140.521 56.7s103.441-12.768 140.521-29.581 64.319-29.581 96.146-29.581 124.739 56.7 241.595 56.7 179.717-49.281 192.287-179.965c12.447-129.475-72.037-317.746-108.473-401.837s-35.895-304.877-46.841-263.781zM186.588 425.908s123.46 106.004 330.345 106.004 322.948-110.935 322.948-110.935l-14.794-27.117s-97.106 108.473-308.158 108.473c-228.404 0-318.017-106.004-318.017-106.004l-12.326 29.581zM477.487 605.874h64.097c13.609 0 24.652-11.044 24.652-24.652v-101.075c0-13.609-11.044-24.652-24.652-24.652h-64.097c-13.609 0-24.652 11.044-24.652 24.652v101.075c0 13.609 11.044 24.652 24.652 24.652zM647.219 576.3109999999999l51.596-14.101c10.973-3.007 17.428-14.324 14.422-25.269l-22.211-81.403c-3.007-10.944-14.324-17.405-25.291-14.422l-51.596 14.101c-10.973 3.007-17.428 14.324-14.422 25.269l22.236 81.403c2.983 10.944 14.298 17.405 25.269 14.422zM374.635 575.623l-52.043-14.002c-11.044-2.983-17.555-14.224-14.544-25.095l22.432-80.835c3.007-10.894 14.422-17.302 25.468-14.349l52.016 14.002c11.069 2.983 17.58 14.224 14.544 25.121l-22.411 80.835c-3.007 10.87-14.422 17.302-25.468 14.324zM253.171 506.772l-33.083-18.244c-7.027-3.894-9.568-12.674-5.696-19.625l28.794-51.675c3.894-6.953 12.721-9.469 19.745-5.597l33.083 18.269c7.027 3.87 9.568 12.647 5.696 19.625l-28.794 51.675c-3.894 6.953-12.721 9.442-19.745 5.571zM764.637 507.855l33.158-18.22c7.051-3.87 9.613-12.622 5.721-19.574l-28.869-51.548c-3.894-6.928-12.745-9.442-19.794-5.571l-33.158 18.22c-7.051 3.87-9.613 12.622-5.721 19.574l28.869 51.548c3.894 6.953 12.745 9.442 19.794 5.571z"  horiz-adv-x="1024" />

    
    <glyph glyph-name="kouqiangzhongzhi" unicode="&#42504;" d="M793.037 24.071000000000026s-49.377 138.4-7.396 278.573 129.699 395.452 36.978 463.469c-24.455 16.937-85.716 22.236-145.45 4.93-49.45-15.014-119.123-32.048-160.241-32.048s-106.747 24.406-155.309 41.908-132.802 16.148-165.171-14.794-61.311-65.7-46.841-167.636 63.503-187.852 91.216-266.246 31.21-187.482 29.581-209.548 13.926-127.086 61.633-135.59 68.806 73.811 78.887 103.542c24.925 73.466 67.942 111.553 120.8 110.935s92.818-36.607 125.728-98.61 88.822-109.826 123.262-130.658c8.677-5.918 18.443-35.424-34.513-59.168-30.569-13.313-98.241 8.654-115.867 96.146s-64.466 152.081-113.402 150.38c-23.569-1.7-40.16-4.637-69.027-66.561-16.963-36.388-30.398-185.241-106.004-192.287s-107.114 107.235-106.004 226.804-96.933 296.717-125.728 345.136c-38.185 64.221-75.808 248.889 27.117 342.67 38.581 34.687 77.678 57.615 140.521 56.7s103.441-12.768 140.521-29.581 64.319-29.581 96.146-29.581 124.739 56.7 241.595 56.7 179.717-49.281 192.287-179.965c12.447-129.475-72.037-317.746-108.473-401.837s-35.895-304.877-46.841-263.781zM526.794 199.10299999999995s47.281 165.49-34.513 258.853-147.916 78.887-147.916 78.887 30.348-6.483 78.887-46.841 64.172-60.743 71.493-83.82c-23.372 1.825-36.783 12.253-66.561 14.794s-53.101 2.66-69.027 17.258-54.778 48.689-71.493 71.493c-20.636 28.128-66.981 68.681-64.097 66.561 20.191 4.978 71.737 5.202 96.146 9.861s82.215 6.532 103.542-2.465 73.121-21.227 120.8-157.774c14.89 41.467 47.853 102.727 101.075 118.331 43.685 11.291 152.845-24.652 152.845-24.652s-34.389-38.484-41.908-46.841-46.222-51.967-78.887-64.097c-14.125-4.731-44.916-2.316-56.7-4.93s-39.443-14.794-39.443-14.794-1.159 24.013 46.841 59.168c36.857 23.274 53.742 33.133 69.027 36.978-29.929-2.835-57.59-1.725-91.216-29.581s-49.305-56.7-49.305-56.7 17.58-54.508 22.187-106.004-12.326-101.075-12.326-101.075l-39.443 7.396z"  horiz-adv-x="1024" />

    
    <glyph glyph-name="dingdandaifukuan" unicode="&#59542;" d="M465.621 426.667l-97.813 114.133c-3.511 3.791-5.664 8.882-5.664 14.477 0 11.782 9.551 21.333 21.333 21.333 6.753 0 12.773-3.137 16.682-8.034l111.841-130.432 111.787 130.432c3.939 4.579 9.739 7.46 16.213 7.46 11.79 0 21.348-9.558 21.348-21.348 0-5.316-1.943-10.179-5.159-13.916l-97.832-114.105h81.493c11.84 0 21.461-9.472 21.461-21.333 0-11.776-9.6-21.333-21.483-21.333h-106.496v-85.333h106.517c11.861 0 21.483-9.472 21.483-21.333 0-11.776-9.6-21.333-21.483-21.333h-106.517v-127.851c0-11.861-9.472-21.483-21.333-21.483-11.776 0-21.333 9.579-21.333 21.483v127.851h-106.517c-0.038-0-0.083-0-0.128-0-11.786 0-21.343 9.549-21.355 21.333-0 11.777 9.6 21.334 21.483 21.334h106.517v85.333h-106.517c-0.038-0-0.083-0-0.128-0-11.786 0-21.343 9.549-21.355 21.333-0 11.777 9.6 21.334 21.483 21.334h81.472zM298.667 768.043c0 23.552 19.157 42.624 42.453 42.624h341.76c23.424 0 42.453-19.157 42.453-42.624v-42.752c-0.012-23.476-18.991-42.515-42.443-42.624l-341.77-0c-23.424 0-42.453 19.157-42.453 42.624v42.752zM341.333 725.333h341.333v42.667h-341.333v-42.667zM236.16 768v-42.667h-65.408l-0.085-725.227 682.667-0.107v725.227l-63.424 0.107v42.667h63.296c23.637 0 42.795-19.072 42.795-42.773v-725.12c0-23.616-18.987-42.773-42.667-42.773h-682.667c-0-0-0-0-0-0-23.564 0-42.667 19.103-42.667 42.667 0 0.038 0 0.075 0 0.112l-0 725.114c0 23.616 19.115 42.773 42.752 42.773h65.408z"  horiz-adv-x="1024" />

    
    <glyph glyph-name="bianji" unicode="&#42496;" d="M343.3 335.70000000000005c-0.6-0.8-1.2-1.6-1.4-2.5l-45.1-170.9c-2.6-10 0.1-20.7 7.2-28.2 5.3-5.4 12.3-8.3 19.8-8.3 2.5 0 4.9 0.3 7.4 1l164.1 46.3c0.3 0 0.4-0.2 0.6-0.2 1.9 0 3.8 0.7 5.1 2.2l438.8 453.6c13 13.5 20.2 31.9 20.2 51.9 0 22.7-9.3 45.3-25.6 62.1L893 785.4c-16.3 16.8-38.2 26.5-60.1 26.5-19.3 0-37.1-7.4-50.2-20.9L343.9 337.20000000000005c-0.4-0.4-0.3-1-0.6-1.5z m553.6 337.2l-43.6-45-70.6 74.2 43 44.4c6.8 7.1 20 6 27.8-2.1l41.5-42.9c4.3-4.5 6.8-10.4 6.8-16.3-0.2-4.7-1.9-9.1-4.9-12.3zM421.3 328.5L738 655.9l70.7-74.3-316.1-326.7-71.3 73.6m-57.7-132.7l22.9 86.8 61-63.1-83.9-23.7m561.1 297.4c-16.6 0-30.2-14-30.3-31.4v-422.9c0-22.2-17.4-40.2-38.9-40.2h-692c-21.5 0-38.9 18-38.9 40.2V729.2c0 22.2 17.5 40.2 38.9 40.2h445.7c16.7 0 30.3 14 30.3 31.3 0 17.2-13.6 31.3-30.3 31.3H158.9C106.6 832 64 788 64 733.9V34c0-54.1 42.6-98.1 94.9-98.1h701.2c52.3 0 94.9 44 94.9 98.1V462c-0.1 17.2-13.7 31.2-30.3 31.2z"  horiz-adv-x="1024" />

    
    <glyph glyph-name="shipin" unicode="&#58917;" d="M879.496-65.426H145.841c-45.022 0-81.517 36.495-81.517 81.517V749.746c0 45.022 36.495 81.517 81.517 81.517h733.655c45.022 0 81.517-36.495 81.517-81.517v-733.655c0-45.022-36.495-81.517-81.517-81.517zM227.358 749.746h-81.517v-81.517h81.517v81.517z m0-122.276h-81.517v-81.517h81.517V627.47z m0-122.275h-81.517v-81.517h81.517v81.517z m0-163.035h-81.517v-81.517h81.517V342.16z m0-122.276h-81.517v-81.517h81.517v81.517z m0-122.275h-81.517v-81.517h81.517v81.517zM757.22 749.746H268.117v-733.655H757.22V749.746z m122.276 0h-81.517v-81.517h81.517v81.517z m0-122.276h-81.517v-81.517h81.517V627.47z m0-122.275h-81.517v-81.517h81.517v81.517z m0-163.035h-81.517v-81.517h81.517V342.16z m0-122.276h-81.517v-81.517h81.517v81.517z m0-122.275h-81.517v-81.517h81.517v81.517zM471.91 505.195c40.759 0 163.034-81.517 163.034-122.276S512.668 260.643 471.91 260.643s-40.612 40.759-40.612 40.759V464.436s-0.147 40.759 40.612 40.759z"  horiz-adv-x="1024" />

    
    <glyph glyph-name="qysj" unicode="&#58884;" d="M1004.8-128H19.2c-10.496 0-19.2 8.704-19.2 19.2s8.704 19.2 19.2 19.2h985.6c10.496 0 19.2-8.704 19.2-19.2s-8.704-19.2-19.2-19.2zM156.416 123.648l31.488-21.76-153.088-221.44-31.488 21.76 153.088 221.44zM34.048-128H0v58.88l37.632 312.064L170.24 369.152l5.376 1.024c1.28 0.256 8.448 1.792 20.224 1.792 23.296 0 70.656-5.888 125.952-44.288 36.608-25.6 63.232-54.528 79.36-86.016 12.544-24.576 13.824-41.728 13.824-43.776l0.256-4.864-72.448-156.416-215.808-114.432L34.048-128z m4.352 56.576v-10.496l70.4 38.144 204.544 108.288 62.464 135.168c-2.56 13.056-15.616 54.016-76.288 96.512-54.016 37.888-97.28 38.4-111.36 37.12l-114.176-108.8L38.4-71.424zM197.12 85.76c-12.8 0-25.088 3.84-35.584 11.008-29.184 19.968-36.864 59.648-17.152 88.832 11.776 17.664 31.744 28.16 52.736 28.16 12.8 0 25.088-3.84 35.84-11.008 29.184-19.712 36.608-59.648 16.896-88.832-11.776-17.664-31.488-28.16-52.736-28.16z m0 89.6c-8.448 0-16.384-4.096-20.992-11.264a25.574 25.574 0 0 1 6.912-35.584c4.096-2.816 8.96-4.352 14.08-4.352 8.448 0 16.384 4.096 20.992 11.264a25.574 25.574 0 0 1-6.912 35.584c-4.096 2.816-8.96 4.352-14.08 4.352z m221.184 92.416l-6.4 9.728c-0.512 0.512-25.6 37.632-69.376 68.352-44.8 31.232-88.576 45.312-89.088 45.568l-5.12 1.536-3.584 4.096c-5.632 6.144-29.952 41.728 28.416 126.208 63.744 91.904 140.288 183.808 209.92 251.648C565.76 855.04 631.04 896 677.12 896c13.824 0 26.112-3.584 36.352-10.752 25.6-17.92 36.608-49.664 32.256-94.208-3.584-35.584-16.896-80.384-39.68-133.376-38.144-88.576-103.168-200.96-183.552-316.928-45.056-65.024-88.064-71.168-92.928-71.68l-11.264-1.28zM273.408 424.704c16.128-5.888 52.992-21.248 90.88-47.616 34.56-24.064 58.624-51.456 70.656-66.56 11.776 5.376 32.768 18.944 55.808 51.968 78.848 113.92 142.848 224 179.968 310.272 21.248 49.408 33.536 90.368 36.608 121.856 2.816 29.696-2.56 49.664-15.872 59.136-3.84 2.56-8.448 3.84-14.336 3.84-34.048 0-94.976-40.192-166.912-110.592-68.096-66.304-142.848-156.16-205.312-246.016-28.928-41.472-32.768-66.304-31.488-76.288z"  horiz-adv-x="1024" />

    
    <glyph glyph-name="cysj" unicode="&#58885;" d="M512-128c-102.144 0-185.088 82.944-185.088 185.088v76.544l-3.328 1.792c-61.44 32.512-113.664 80.64-151.296 139.264-41.728 65.024-63.744 140.288-63.744 217.856 0 107.776 41.984 209.152 118.272 285.44S404.224 896 512 896c107.776 0 209.152-41.984 285.44-118.272 76.288-76.288 118.272-177.408 118.272-285.44 0-77.568-22.016-152.832-63.744-217.856-37.632-58.624-89.856-106.496-151.296-139.264l-3.328-1.792v-76.544C697.088-45.056 613.888-128 512-128zM366.336 32.256c12.032-71.168 73.216-122.88 145.408-122.88s133.376 51.712 145.408 122.88l1.28 7.68H365.056l1.28-7.68z m-2.048 45.056h295.168v49.152H364.288v-49.152z m211.2 86.784h98.56l1.28 0.512c59.136 29.44 109.056 74.496 144.896 130.048 37.888 58.88 57.856 127.232 57.856 197.632 0 97.792-38.144 189.696-107.264 258.816-69.376 69.12-161.28 107.264-259.072 107.264S322.304 820.48 252.928 751.36c-69.12-69.12-107.264-161.024-107.264-258.816 0-70.4 19.968-138.752 57.856-197.632 35.584-55.808 85.76-100.608 144.896-130.048l1.28-0.512h98.56V373.248H396.8c-49.152 0-89.088 39.936-89.088 89.088 0 48.896 39.936 89.088 89.088 89.088s89.088-39.936 89.088-89.088v-51.456h51.968v51.456c0 48.896 39.936 89.088 89.088 89.088s89.088-39.936 89.088-89.088-39.936-89.088-89.088-89.088h-51.456v-209.152z m-89.6 0h51.968V372.992h-51.968v-208.896zM626.944 513.28c-28.416 0-51.456-23.04-51.456-51.456v-51.456h51.456c28.416 0 51.456 23.296 51.456 51.456 0 28.416-23.04 51.456-51.456 51.456z m-230.144 0c-28.416 0-51.456-23.04-51.456-51.456 0-28.416 23.296-51.456 51.456-51.456h51.456v51.456c0.256 28.416-23.04 51.456-51.456 51.456z"  horiz-adv-x="1024" />

    
    <glyph glyph-name="wd" unicode="&#58886;" d="M644.3 370.852c93.768 45.936 158.28 139.387 158.28 247.224C802.58 771.123 672.911 895.631 513.536 895.631c-159.406 0-289.075-124.508-289.075-277.555 0-107.448 64.04-200.632 157.266-246.743C162.417 315.761 0 124.191 0-103.608c0-13.148 11.08-23.788 24.78-23.788 13.692 0 24.771 10.64 24.771 23.788 0 244.879 207.483 444.119 462.5 444.119 255.027 0 462.48-199.24 462.48-444.12 0-13.147 11.09-23.787 24.78-23.787 13.701 0 24.781 10.64 24.781 23.788 0 227.143-161.454 418.263-379.791 474.46zM274.023 618.076c0 126.812 107.449 229.97 239.514 229.97 132.055 0 239.483-103.158 239.483-229.97s-107.428-229.99-239.483-229.99c-132.065 0-239.514 103.178-239.514 229.99z"  horiz-adv-x="1024" />

    
    <glyph glyph-name="kz" unicode="&#58887;" d="M923.108 663.35L769.702 816.761c-16.875 16.876-44.346 16.876-61.22 0L555.076 663.35c-8.173-8.173-12.684-19.047-12.684-30.61 0-11.556 4.51-22.43 12.684-30.603l153.406-153.413c8.451-8.437 19.534-12.656 30.617-12.656 11.083 0 22.166 4.219 30.603 12.656l153.406 153.412c16.875 16.883 16.875 44.339 0 61.214zM875.7-37.393H603.626c-33.29 0-60.371 27.073-60.371 60.357v272.08c0 33.283 27.08 60.358 60.37 60.358H875.7c33.277 0 60.358-27.074 60.358-60.358v-272.08c0-33.284-27.08-60.357-60.357-60.357zM603.626 341.144c-25.424 0-46.114-20.683-46.114-46.1v-272.08c0-25.418 20.69-46.1 46.114-46.1h272.073c25.424 0 46.1 20.682 46.1 46.1v272.08c0 25.417-20.676 46.1-46.1 46.1H603.626zM402.519-37.393H130.445c-33.277 0-60.358 27.073-60.358 60.357v272.08c0 33.283 27.081 60.358 60.358 60.358h272.074c33.276 0 60.357-27.074 60.357-60.358v-272.08c0-33.284-27.08-60.357-60.357-60.357zM130.445 341.144c-25.424 0-46.1-20.683-46.1-46.1v-272.08c0-25.418 20.676-46.1 46.1-46.1h272.074c25.424 0 46.1 20.682 46.1 46.1v272.08c0 25.417-20.676 46.1-46.1 46.1H130.445z m272.074 94.636H130.445c-33.277 0-60.358 27.074-60.358 60.358v272.08c0 33.284 27.081 60.365 60.358 60.365h272.074c33.276 0 60.357-27.081 60.357-60.364v-272.081c0-33.284-27.08-60.358-60.357-60.358zM130.445 814.325c-25.424 0-46.1-20.683-46.1-46.107v-272.081c0-25.417 20.676-46.1 46.1-46.1h272.074c25.424 0 46.1 20.683 46.1 46.1V768.219c0 25.424-20.676 46.107-46.1 46.107H130.445z"  horiz-adv-x="1024" />

    
    <glyph glyph-name="ys" unicode="&#58888;" d="M512-103.183C243.364-103.183 24.812 115.369 24.812 384 24.812 652.636 243.364 871.188 512 871.188c268.636 0 487.183-218.552 487.183-487.188 0-268.636-218.547-487.183-487.183-487.183z m0 930.831C267.372 827.648 68.352 628.628 68.352 384c0-244.623 199.02-443.643 443.648-443.643 244.623 0 443.643 199.02 443.643 443.643 0 244.628-199.02 443.648-443.643 443.648zM756.7 534.267H267.295a21.77 21.77 0 0 0 0 43.54H756.7a21.77 21.77 0 1 0 0-43.54zM512 534.267a21.77 21.77 0 0 0-21.77 21.77v68.818a21.77 21.77 0 0 0 43.54 0v-68.818a21.765 21.765 0 0 0-21.77-21.77z m0-412.887a21.77 21.77 0 0 0-21.77 21.77V250.67a21.77 21.77 0 1 0 43.54 0v-107.52A21.765 21.765 0 0 0 512 121.38zM394.583 135.035a21.77 21.77 0 0 0-15.534 37.023l92.16 93.865a21.77 21.77 0 0 0 31.068-30.5l-92.16-93.865a21.683 21.683 0 0 0-15.534-6.523z m235.351 0a21.709 21.709 0 0 0-15.396 6.374l-93.865 93.865a21.78 21.78 0 0 0 0 30.792 21.78 21.78 0 0 0 30.792 0L645.33 172.2a21.78 21.78 0 0 0-15.396-37.166zM673.833 247.675H354.268c-21.77 0-39.48 17.71-39.48 39.48V538.327c0 21.77 17.71 39.48 39.48 39.48h319.565c21.77 0 39.48-17.71 39.48-39.48v-251.172c0-21.77-17.71-39.48-39.48-39.48z m-315.505 43.54h311.445V534.267H358.328v-243.052z"  horiz-adv-x="1024" />

    
    <glyph glyph-name="gt" unicode="&#58889;" d="M183.339-21.653c-42.462 0-76.992 35.073-76.992 78.569V711.084c0 43.452 34.554 78.568 76.94 78.568h433.617c42.414 0 76.94-35.11 76.94-78.6v-204c0-11.588 9.394-20.981 20.98-20.981 11.59 0 20.983 9.393 20.983 20.98V711.054c0.001 66.508-53.153 120.564-118.902 120.564H183.288c-65.716 0-118.905-54.057-118.905-120.533v-654.168c0-66.525 53.169-120.533 118.956-120.533h272.375c11.589 0 20.983 9.394 20.983 20.982 0 11.589-9.394 20.983-20.983 20.983H183.339zM595.928 621.796c11.59 0 20.982 9.395 20.982 20.983s-9.394 20.981-20.982 20.981H204.263c-11.589 0-20.981-9.393-20.981-20.981 0-11.59 9.394-20.982 20.981-20.982h391.665z m0-153.868c11.59 0 20.982 9.394 20.982 20.982 0 11.589-9.394 20.982-20.982 20.982H204.263c-11.589 0-20.981-9.394-20.981-20.981 0-11.589 9.394-20.983 20.981-20.983h391.665zM428.072 314.06c11.589 0 20.982 9.395 20.982 20.983s-9.394 20.982-20.982 20.982H204.263c-11.589 0-20.981-9.394-20.981-20.982 0-11.589 9.394-20.982 20.981-20.982h223.809z m436.83-295.687c-2.974 18.788-1.082 35.553 11.03 50.811 26.939 33.94 41.72 75.339 41.72 118.985C917.653 296.045 827.112 384 714.828 384 602.54 384 512 296.046 512 188.168s90.54-195.833 202.827-195.833c25.25 0 49.8 4.44 72.799 12.983 20.07 7.455 30.389 5.857 77.796-5.044l2.126-0.488 1.756-0.402c-2.159 7.384-3.415 12.745-4.402 18.988zM714.827-49.63c-135.195 0-244.792 106.465-244.792 237.797s109.598 237.797 244.793 237.797c135.193-0.001 244.789-106.466 244.789-237.797 0-54.614-18.952-104.927-50.816-145.072-14.026-17.672 25.398-75.339 6.883-88.569-17.53-12.526-92.792 19.126-113.444 11.454-27.148-10.086-56.617-15.61-87.413-15.61zM686.851 188.168a27.976 27.976 0 1 1 55.952 0 27.976 27.976 0 1 1-55.952 0zM574.946 188.168a27.976 27.976 0 1 1 55.952 0 27.976 27.976 0 1 1-55.952 0zM798.755 188.168a27.976 27.976 0 1 1 55.952 0 27.976 27.976 0 1 1-55.952 0z"  horiz-adv-x="1024" />

    
    <glyph glyph-name="congxiangcedaoru" unicode="&#58891;" d="M890.1 677.8c0-11.6-9.4-21-21-21h-126c-11.6 0-21 9.4-21 21s9.4 21 21 21h126c11.7 0 21-9.4 21-21zM319.1 355.9c-57.9 0-105 47.1-105 105s47.1 105 105 105 105-47.1 105-105-47.1-105-105-105z m0 168c-34.7 0-63-28.3-63-63s28.3-63 63-63 63 28.3 63 63-28.3 63-63 63zM554.9-8.6c-5.4 0-10.7 2.1-14.8 6.2L339.7 197.9c-9.9 9.9-27.1 9.9-37.1 0L157.9 53.2c-8.2-8.2-21.5-8.2-29.7 0s-8.2 21.5 0 29.7l144.7 144.7c25.8 25.8 70.7 25.8 96.5 0l200.4-200.4c8.2-8.2 8.2-21.5 0-29.7-4.1-4-9.5-6.1-14.9-6.1zM408.8 147.2c-5.4 0-10.7 2.1-14.8 6.2-8.2 8.2-8.2 21.5 0 29.7l248.3 248.3c31 31 81.5 31 112.4 0L899 287c8.2-8.2 8.2-21.5 0-29.7s-21.5-8.2-29.7 0L725 401.7c-14.6 14.6-38.4 14.6-53.1 0L423.7 153.4c-4.1-4.1-9.5-6.2-14.9-6.2zM814.5 576.2c-5.4 0-10.7 2.1-14.8 6.2-8.2 8.2-8.2 21.5 0 29.7l65.8 65.8-65.3 65.3c-8.2 8.2-8.2 21.5 0 29.7s21.5 8.2 29.7 0l80.2-80.2c3.9-3.9 6.2-9.3 6.2-14.8 0-5.6-2.2-10.9-6.2-14.8l-80.7-80.7c-4.1-4.1-9.5-6.2-14.9-6.2zM800.8-15.4h-588c-57.9 0-105 47.1-105 105v504c0 57.9 47.1 105 105 105H645c11.6 0 21-9.4 21-21s-9.4-21-21-21H212.8c-34.7 0-63-28.3-63-63v-504c0-34.7 28.3-63 63-63h588c34.7 0 63 28.3 63 63v440c0 11.6 9.4 21 21 21s21-9.4 21-21v-440c0-57.9-47.1-105-105-105zM190.9 657.4c-11.6 0-21 9.4-21 21 0 57.9 47.1 105 105 105h448.4c11.6 0 21-9.4 21-21s-9.4-21-21-21H274.9c-34.7 0-63-28.3-63-63 0-11.6-9.4-21-21-21z"  horiz-adv-x="1024" />

    
    <glyph glyph-name="luxiangji" unicode="&#58975;" d="M530.7 455.1c-92.8 0-168.2-75.5-168.2-168.2S438 118.7 530.7 118.7c92.8 0 168.2 75.5 168.2 168.2s-75.5 168.2-168.2 168.2z m0-309.4c-77.9 0-141.2 63.4-141.2 141.2s63.4 141.2 141.2 141.2 141.2-63.4 141.2-141.2-63.4-141.2-141.2-141.2zM257.5 518.4c-44.1 0-79.9-35.8-79.9-79.9 0-44 35.8-79.9 79.9-79.9s79.9 35.8 79.9 79.9c0 44-35.8 79.9-79.9 79.9z m0-132.8c-29.2 0-52.9 23.7-52.9 52.9s23.7 52.9 52.9 52.9 52.9-23.7 52.9-52.9-23.7-52.9-52.9-52.9zM975.4 460l-150.8-22v51.2c0 54.1-44 98.1-98.1 98.1h-83.7c-8.6 31.3-37.3 54-70.3 54H299.7c-33.7 0-62.1-22.8-70.5-54h-19.9c-47.1 0-86.6-33.4-95.9-77.8H48.6V353h62.6v-210c0-54.1 44-98.1 98.1-98.1h517.3c54.1 0 98.1 44 98.1 98.1v64.9l150.8-31V460zM299.7 614.4h272.9c18.3 0 34.4-11 41.8-27H257.7c7.3 15.9 23.4 27 42 27zM75.6 380V482.5h35.6V380H75.6z m722-237c0-39.2-31.9-71.1-71.1-71.1H209.2c-39.2 0-71.1 31.9-71.1 71.1V489.3c0 39.2 31.9 71.1 71.1 71.1h517.3c39.2 0 71.1-31.9 71.1-71.1V143z m150.8 67l-123.8 25.4V410.8l123.8 18V210z"  horiz-adv-x="1024" />

    
    <glyph glyph-name="kecheng" unicode="&#58971;" d="M874.7 618.7h-85.3V789.3c0 23.6-19.1 42.7-42.7 42.7H149.3c-23.6 0-42.7-19.1-42.7-42.7v-682.7c0-23.6 19.1-42.7 42.7-42.7h128v-85.3c0-23.6 19.1-42.7 42.7-42.7h554.7c23.6 0 42.7 19.1 42.7 42.7V576c-0.1 23.6-19.2 42.7-42.7 42.7z m-576 170.6h170.7v-298.7l-75.8 37.9c-6 3-13.1 3-19.1 0l-75.8-37.9V789.3z m-128-682.6c-11.8 0-21.3 9.6-21.3 21.3V768c0 11.8 9.6 21.3 21.3 21.3H256v-328.1c0-15.9 16.7-26.2 30.9-19.1l97.1 48.6 97.1-48.6c14.2-7.1 30.9 3.2 30.9 19.1V789.3h213.3c11.8 0 21.3-9.6 21.3-21.3v-640c0-11.8-9.6-21.3-21.3-21.3H170.7z m704-106.7c0-11.8-9.6-21.3-21.3-21.3h-512c-11.8 0-21.3 9.6-21.3 21.3v64h426.7c23.6 0 42.7 19.1 42.7 42.7V576h64c11.8 0 21.3-9.6 21.3-21.3V0zM277.3 341.29999999999995m-21.3 0a21.3 21.3 0 1 1 42.6 0 21.3 21.3 0 1 1-42.6 0ZM618.7 362.70000000000005h-256c-11.7 0-21.3-9.6-21.3-21.3 0-11.7 9.6-21.3 21.3-21.3h256c11.7 0 21.3 9.6 21.3 21.3 0 11.7-9.6 21.3-21.3 21.3zM277.3 234.70000000000005m-21.3 0a21.3 21.3 0 1 1 42.6 0 21.3 21.3 0 1 1-42.6 0ZM618.7 256h-256c-11.7 0-21.3-9.6-21.3-21.3 0-11.7 9.6-21.3 21.3-21.3h256c11.7 0 21.3 9.6 21.3 21.3 0 11.7-9.6 21.3-21.3 21.3z"  horiz-adv-x="1024" />

    
    <glyph glyph-name="shanchu-copy" unicode="&#58880;" d="M799.2 21.600000000000023c0-34.4-28-62.4-62.368-62.4H287.2a62.496 62.496 0 0 0-62.4 62.4v662.4h574.4v-662.4z m-449.6 774.4c0 7.2 5.6 12.8 12.8 12.8H662.4c7.2 0 12.768-5.6 12.768-12.8V758.4H349.6V796z m636.8-37.6h-236.8V796C749.6 844 710.4 883.2 662.4 883.2h-300A87.392 87.392 0 0 1 275.2 796V758.4H37.6C16.8 758.4 0 741.6 0 720.8S16.8 683.2 37.6 683.2h112v-661.6a137.6 137.6 0 0 1 137.6-137.6h449.6a137.6 137.6 0 0 1 137.6 137.6v662.4h112C1007.2 684 1024 700.8 1024 721.6s-16.8 36.8-37.6 36.8zM512 72c20.8 0 37.6 16.8 37.6 37.6v400c0 20.8-16.768 37.6-37.6 37.6-20.8 0-37.6-16.8-37.6-37.6v-400c0-20.8 16.8-37.6 37.6-37.6m-175.2 0c20.8 0 37.6 16.8 37.6 37.6v400c0 20.8-16.8 37.6-37.6 37.6s-37.6-16.8-37.6-37.6v-400c0.8-20.8 17.6-37.6 37.6-37.6m350.4 0c20.8 0 37.632 16.8 37.632 37.6v400c0 20.8-16.8 37.6-37.632 37.6-20.768 0-37.6-16.8-37.6-37.6v-400c0-20.8 16.8-37.6 37.6-37.6"  horiz-adv-x="1024" />

    
    <glyph glyph-name="jiantou-right-m" unicode="&#58942;" d="M364.30375015 763.74052277L743.97450673 384.06976697 364.30375015 4.399011159999986l-56.23201538 56.23201537 323.43874043 323.43874044-323.43874043 323.43874042z"  horiz-adv-x="1024" />

    
    <glyph glyph-name="guanbi" unicode="&#58999;" d="M962.404657 762.69395l-71.530076 71.530075-378.784265-378.784265L133.30605 834.224025 61.775975 762.69395l378.784265-378.784266L61.775975 5.125419l71.530075-71.530076 378.784266 378.784265 378.784265-378.784265 71.530076 71.530076-378.784265 378.784265z"  horiz-adv-x="1024" />

    
    <glyph glyph-name="jianli" unicode="&#59000;" d="M494.388428 497.707532c21.856412 0 39.377668 17.701887 39.377668 39.377668v103.140589c0 21.856412-17.701887 39.377668-39.377668 39.377668H305.267243c-21.856412 0-39.377668-17.701887-39.377668-39.377668v-103.140589c0-21.856412 17.701887-39.377668 39.377668-39.377668h189.121185z m-192.191921 39.377668v103.140589c0 1.625684 1.264421 3.070736 3.070736 3.070736h189.121185c1.625684 0 3.070736-1.264421 3.070736-3.070736v-103.140589c0-1.625684-1.264421-3.070736-3.070736-3.070735H305.267243c-1.625684 0-3.070736 1.264421-3.070736 3.070735zM900.448051 626.678427c0 0.180632 0 0.180632 0 0-0.180632 0.903158-0.180632 1.806315-0.361263 2.709472s-0.361263 1.625684-0.722526 2.528841c0 0.180632 0 0.180632-0.180632 0.361263-0.180632 0.722526-0.541895 1.445052-0.722526 2.34821 0 0.180632-0.180632 0.361263-0.180631 0.541894-0.180632 0.541895-0.541895 1.083789-0.903158 1.625684-0.180632 0.180632-0.361263 0.541895-0.361263 0.722526-0.361263 0.541895-0.541895 0.903158-0.903157 1.445052-0.180632 0.361263-0.361263 0.541895-0.541895 0.903157-0.361263 0.361263-0.541895 0.722526-0.903157 1.083789-0.180632 0.361263-0.541895 0.541895-0.722526 0.722526l-1.083789 1.083789-0.361263 0.361263L663.278885 854.635385l-0.541894 0.541895c-0.361263 0.180632-0.541895 0.541895-0.903158 0.722526-0.361263 0.180632-0.541895 0.541895-0.903157 0.722526-0.361263 0.180632-0.722526 0.541895-1.083789 0.722526-0.361263 0.180632-0.541895 0.361263-0.903158 0.541895-0.361263 0.180632-0.722526 0.361263-1.083789 0.722526-0.361263 0.180632-0.541895 0.361263-0.903157 0.361263-0.361263 0.180632-0.903158 0.361263-1.264421 0.541894-0.361263 0.180632-0.541895 0.180632-0.903158 0.361263s-0.903158 0.361263-1.26442 0.541895c-0.361263 0.180632-0.722526 0.180632-1.083789 0.180631-0.361263 0.180632-0.903158 0.180632-1.264421 0.361263-0.361263 0-0.903158 0.180632-1.26442 0.180632-0.361263 0-0.722526 0.180632-1.083789 0.180631-0.903158 0-1.625684 0.180632-2.709473 0.180632H149.924149c-14.631152 0-26.552831-11.921679-26.552831-26.552832v-902.434997c0-14.631152 11.921679-26.552831 26.552831-26.552831h724.332334c14.631152 0 26.552831 11.921679 26.552831 26.552831V624.149585c-0.180632 0.903158-0.361263 1.806315-0.361263 2.528842zM671.949197 774.615629l134.209208-123.913212H671.949197V774.615629zM176.47698-40.754983V808.574352h442.547187v-184.424767c0-14.631152 11.921679-26.552831 26.552831-26.552831h202.126653v-638.351737H176.47698zM733.002646 131.206209H308.337978c-11.741048 0-25.288411-7.22526-25.28841-21.495149 0-11.921679 10.476627-21.495149 25.28841-21.495149h430.806139c16.618098 0 19.146939 7.947786 19.14694 21.495149-0.180632 13.1861-5.418945 21.495149-25.288411 21.495149zM733.002646 326.468866H512.993473c-11.741048 0-25.288411-7.22526-25.28841-21.495149 0-11.921679 10.476627-21.495149 25.28841-21.495149h226.150644c16.618098 0 19.146939 7.947786 19.14694 21.495149-0.180632 13.1861-5.418945 21.495149-25.288411 21.495149z"  horiz-adv-x="1024" />

    
    <glyph glyph-name="lianxiren" unicode="&#59001;" d="M925.375198 81.171282c-15.353678 44.43535-37.751984 85.980596-66.653025 123.55195-28.539778 37.21009-62.679132 69.362498-101.334274 95.734697-35.223143 24.02399-73.697654 42.809667-114.159111 55.634504 40.280826 22.398307 74.239548 54.189451 98.986065 92.663961 28.359146 44.074087 43.351561 95.012171 43.351561 147.57594C785.566414 748.604692 661.833833 872.517904 509.922738 872.517904 357.650379 872.517904 233.737167 748.604692 233.737167 596.332334c0-52.383136 14.992415-103.321221 43.351561-147.395308 24.927148-38.655142 58.885871-70.626918 98.986065-92.844593-40.461457-13.005468-78.574705-31.610513-113.97848-55.634504-38.655142-26.3722-72.794496-58.524608-101.514905-95.734697-28.901041-37.571353-51.479979-79.116599-66.833657-123.55195-16.076204-46.061034-24.204622-94.289645-24.204622-143.421414 0-23.120833 18.966308-42.087141 42.087141-42.087141s42.087141 18.966308 42.08714 42.087141c0 195.985183 159.497619 355.482801 355.482802 355.482801S864.683013 133.73505 864.683013-62.250132c0-23.120833 18.966308-42.087141 42.08714-42.087141s42.087141 18.966308 42.087141 42.087141c0.361263 49.131769-7.586523 97.360381-23.482096 143.421414z m-223.983065 515.341683c0-105.488799-85.799965-191.469395-191.469395-191.469395h-0.903158c-50.576821 0-98.263539 19.688834-134.209208 55.453872-36.306932 36.126301-56.357029 84.354913-56.357029 135.473629 0 105.850062 85.799965 192.011289 191.469395 192.011289s191.469395-85.799965 191.469395-191.469395z"  horiz-adv-x="1024" />

    
    <glyph glyph-name="renshu" unicode="&#59002;" d="M1004.311166 148.366202c-9.754101 96.818487-68.639972 181.354031-155.343094 223.983066 29.623567 23.301464 51.841242 54.189451 64.485447 89.954489 14.269889 40.461457 15.173046 83.451755 2.709473 124.635739-12.644205 41.003352-37.390721 76.226495-71.891339 101.695537-34.500617 25.469042-75.323337 39.016405-118.313636 39.016405-15.353678 0-30.707356-1.986947-47.325454-5.96084l-13.908626-3.251367 9.57347-10.476627c13.547363-14.631152 25.469042-30.887987 35.584406-48.228612l2.528841-4.335156 5.057683 0.180631c1.625684 0 3.251367 0.361263 4.696419 0.541895 1.445052 0.180632 2.709473 0.361263 3.793261 0.361263 34.139354 0 66.291762-13.366731 90.315753-37.390722 24.204622-24.204622 37.390721-56.176398 37.390721-90.315752s-13.1861-66.291762-37.390721-90.496384c-24.204622-24.204622-56.176398-37.390721-90.315753-37.390721-1.264421 0-2.709473 0.180632-4.515787 0.361263-1.264421 0.180632-2.528841 0.361263-3.793262 0.361263l-5.238314 0.361263-2.528841-4.515788c-11.018522-19.146939-24.385253-37.029458-39.919562-52.925031l-18.966308-19.508202 26.552831 5.599576c14.269889 3.070736 28.720409 4.515788 42.809667 4.515788 108.01764 0 197.610866-81.103546 208.448756-188.579291l0.722526-7.405892H1004.130534v8.30905l0.180632 0.903157zM800.920092 61.482448c-13.366731 40.100194-33.055565 77.852179-58.343976 111.810902-25.288411 34.139354-55.453872 63.762921-89.95449 88.328806-30.526724 21.675781-63.762921 39.016405-98.986064 51.479978 47.686717 32.152408 84.174281 77.129652 106.211325 130.77721 24.204622 59.427765 27.997883 123.371318 11.199153 185.147292s-52.744399 115.062268-103.501852 153.898042c-50.938084 38.835774-111.63027 59.427765-175.754454 59.427765-65.388605-0.180632-129.69342-22.75957-180.631505-63.762921-51.118716-41.003352-87.064385-98.624802-101.334274-162.568354-14.269889-63.943553-6.322103-131.499735 22.217675-190.204975 26.010937-53.466925 68.45934-97.902276 120.300582-126.622684-67.19492-30.887987-124.274475-79.297231-165.819721-140.892574-45.157876-66.472394-68.820603-143.963309-68.820604-224.344329v-8.309049h67.556183v8.309049c0 1.264421 0 2.34821-0.180631 3.431999 0 0.903158-0.180632 1.625684-0.180632 2.167578 0 181.534662 147.575939 329.291233 328.92997 329.471864 181.354031 0 328.92997-147.756571 328.92997-329.291233 0-0.722526 0-1.445052-0.180631-2.348209 0-1.083789-0.180632-2.167578-0.180632-3.251367v-8.30905h79.116599v8.30905c0 43.351561-6.863997 86.341859-20.591991 127.34521zM608.366908 552.800141c0-119.578056-97.17975-216.757806-216.757806-216.757805s-216.757806 97.17975-216.757805 216.757805 97.17975 216.757806 216.757805 216.757806 216.757806-97.17975 216.757806-216.757806z"  horiz-adv-x="1024" />

    
    <glyph glyph-name="zhiwei" unicode="&#59003;" d="M473.254542 21.562886l208.448757 258.12242-35.223144 25.649674-208.448756-258.12242zM604.212383 523.718469l-35.042512 25.649674-208.448756-258.122421 35.042512-25.649673zM390.344682 162.45546l35.223143-25.649674L634.016581 394.928206l-35.223143 25.649674zM318.814606 636.974422l409.672252 0.722526 45.880403 162.568355c3.973893 14.269889 0.903158 29.081672-8.670313 41.003351-9.392838 11.560416-23.662727 18.243782-39.016405 18.243782l-409.491621-0.541894c-15.534309 0-29.804198-6.863997-39.197036-18.605045-9.392838-11.921679-12.463574-27.094726-7.947787-41.364615l48.770507-162.02646z m1.26442 171.780561l-2.890104 2.890104 2.890104-2.890104z m38.835774-120.661845l-35.94567 119.578056 398.653731 0.541895-33.778091-119.578056-328.92997-0.541895z m-41.906509 123.913212l0.180631-0.180631-0.180631 0.180631zM731.738225 618.008114l-418.161933 1.625684L186.05045 60.037396l319.898395-151.730464L837.94955 61.482448l-106.211325 556.525666z m-44.615981-50.938084l91.21891-477.950961-272.211678-122.829424-259.567472 120.119951 109.823955 481.563592 330.736285-0.903158z"  horiz-adv-x="1024" />

    
    <glyph glyph-name="wode" unicode="&#59004;" d="M804.171459 255.300053c-47.686717 48.770506-104.766273 83.99365-167.264774 104.224378 84.174281 44.796613 141.434468 133.30605 141.434469 235.182219 0 146.853413-119.397425 266.250838-266.250838 266.250838S245.839478 741.560064 245.839478 594.70665c0-101.695537 57.440818-190.385606 141.434468-235.182219-62.498501-20.230729-119.758688-55.453872-167.264773-104.224378C142.156994 175.641559 99.347328 69.791498 99.347328-42.74193c0-8.670312 0.361263-17.701887 0.903157-26.914094 0.722526-13.1861 11.741048-23.301464 24.746516-23.301464h774.367261c13.1861 0 24.02399 10.295996 24.746516 23.301464 0.541895 9.212207 0.903158 18.243782 0.903157 26.914094-0.180632 112.533427-42.990298 218.383489-120.842476 298.041983zM295.513142 594.70665c0 119.397425 97.17975 216.577174 216.577174 216.577174 119.397425 0 216.577174-97.17975 216.577174-216.577174 0-113.978479-88.509437-207.72623-200.50097-215.854648-5.418945 0.180632-10.657259 0.361263-16.076204 0.361263s-10.83789-0.180632-16.076204-0.361263c-111.991533 8.128418-200.50097 101.876169-200.50097 215.854648zM875.15964-43.283824h-726.138649v0.541894c0 199.417181 153.898042 362.708061 346.451226 371.739637 5.599577-0.361263 11.018522-0.541895 16.618099-0.541895s11.199153 0.180632 16.618098 0.541895c192.553184-9.031575 346.451226-172.322455 346.451226-371.739637v-0.541894z"  horiz-adv-x="1024" />

    
    <glyph glyph-name="youxiang" unicode="&#59005;" d="M983.899806 110.614218V671.113777h0.180631l-0.180631 4.696419c-0.180632 5.238314-0.722526 10.476627-1.806315 15.714941-2.890104 25.469042-21.675781 44.977245-45.519139 47.686717H122.287529c-11.741048 0-23.482096-1.625684-34.861881-5.238314-30.346093-10.295996-50.757453-40.100194-50.576821-74.058917v-534.849885c-0.361263-21.314518 5.780208-42.087141 17.701887-59.789028l0.361263-0.722526 5.418946-3.973893c18.243782-21.856412 44.977245-34.319986 73.517022-34.500618H904.421944c37.751984 0 70.265655 27.094726 79.477862 66.291763l0.180631 0.541894c0.361263 5.96084 0.361263 11.741048-0.180631 17.701888zM390.16405 348.505909l55.453872-49.854295 43.893456-40.100194c5.418945-5.96084 13.005468-9.57347 21.133886-9.57347 7.947786 0 15.534309 3.431999 21.133886 9.57347l101.153642 91.941436 272.753572-263.721997H126.622685L390.16405 348.505909z m120.119951-30.346092L111.449638 679.96472H115.604163c214.409596 0.903158 703.559711 2.890104 793.875463 0.361263l-399.195625-362.166166z m165.458458 69.72376l251.619686 227.956959v-474.518963L675.742459 387.883577z m-328.568707-0.180631L93.205856 135.721997V617.104957l253.967896-229.402011z"  horiz-adv-x="1024" />

    
    <glyph glyph-name="dianhua" unicode="&#59006;" d="M510.464632-106.685482C239.517375-106.685482 19.869466 112.962427 19.869466 383.909684c0 270.947257 219.64791 490.595167 490.595166 490.595167 270.947257 0 490.595167-219.64791 490.595167-490.595167-0.361263-270.947257-219.828541-490.414535-490.595167-490.595166z m0 920.678779c-173.948139 0-330.736285-104.766273-397.38931-265.528312-66.653025-160.762039-29.804198-345.7287 93.205856-468.738755s307.976715-159.858882 468.738755-93.205856 265.528312 223.441171 265.528312 397.38931C940.186982 621.259481 747.814429 813.632034 510.464632 813.993297z m153.175516-704.282237c-80.200388 0-185.869818 58.163345-282.507673 155.704357-91.580173 92.302699-150.646675 196.707709-150.646675 266.070207 10.83789 65.027342 61.775975 115.965426 126.803316 126.622684 50.39619 0 126.622685-131.499735 126.622685-160.94267-0.541895-16.979361-6.141471-33.416828-15.714941-47.325455-2.709473-3.973893-5.057682-8.128418-6.502734-12.644205 26.914094-37.21009 59.427765-69.723761 96.818486-96.457223 5.238314 1.806315 10.295996 4.154525 15.173047 6.863997 15.353678 9.392838 32.694302 14.631152 50.757453 15.534309 31.068619 0 166.361616-83.090492 166.361615-126.622685-4.696419-68.45934-59.066502-122.648792-127.164579-126.803316zM354.399012 597.05486c-29.804198-11.379785-53.105662-35.223143-63.401658-65.388605 0-53.828188 53.647557-143.963309 133.486682-223.983066 84.354913-84.535544 176.115717-137.099312 238.975481-137.099312 32.333039 3.973893 58.705239 27.817252 65.749867 59.608397-31.610513 29.623567-67.556183 54.189451-106.572587 72.794496-7.586523-1.445052-14.811783-4.335156-21.495149-8.489681-13.727994-8.489681-29.262304-13.366731-45.338508-14.269888-40.642089 0-155.162463 114.520374-155.162463 155.162462 0.541895 16.618098 5.96084 32.874934 15.714941 46.422297 3.070736 4.335156 5.418945 9.031575 6.863997 14.269889-16.618098 37.21009-40.100194 71.530076-68.820603 100.973011z m0 0"  horiz-adv-x="1024" />

    
    <glyph glyph-name="didian" unicode="&#59007;" d="M509.742106 861.13812c-96.818487 0-189.482448-38.47451-257.761157-106.933851-68.278709-68.45934-106.753219-161.303934-106.753219-257.941789 0-145.408361 189.482448-434.960663 295.151878-559.777033 17.159993-20.41136 42.448404-32.152408 69.181867-32.152408h0.361263c26.733463 0 52.021873 11.741048 69.181866 32.152408C684.774034 61.301817 874.256483 351.03475 874.256483 496.26248c0.180632 201.404128-163.110249 364.875639-364.514377 364.87564z m8.128418-872.992062c-1.986947-2.34821-4.877051-3.61263-7.947786-3.612631h-0.361263c-3.070736 0-5.96084 1.445052-7.947787 3.793262-42.990298 50.757453-115.2429 149.201623-178.825189 260.109367-87.967543 154.078673-97.360381 224.705592-97.360381 247.826424 0 157.149409 127.345211 284.49462 284.313988 284.675252 157.149409-0.361263 284.313988-127.706474 284.313989-284.675252 0-69.543129-68.098077-196.527077-97.360381-247.826424-63.221027-110.907744-135.834892-209.171282-178.82519-260.289998zM509.922738 678.7003h-0.361263c-88.509437 0-160.400776-71.891339-160.400776-160.400776s71.891339-160.400776 160.400776-160.400776h0.722526c88.509437 0.180632 160.220145 72.07197 160.220144 160.581407-0.180632 88.690069-72.07197 160.400776-160.581407 160.220145z m0-240.601164h-0.541895c-44.254719 0-80.200388 35.945669-80.200388 80.200388s35.945669 80.200388 80.200388 80.200388h0.180632c44.254719 0 80.200388-35.765038 80.381019-80.019757 0.180632-44.254719-35.584406-80.200388-80.019756-80.381019z"  horiz-adv-x="1024" />

    
    <glyph glyph-name="gongsi" unicode="&#59008;" d="M956.624449-26.846357h-29.442936V303.167402c0 17.701887-8.850944 41.545246-29.984829 50.396189l-267.334627 174.851297V802.252249l-2.890104 6.141471C614.869642 838.197919 588.316811 853.190333 555.622508 847.229494L136.376786 722.413124c-23.843359-8.850944-41.545246-32.694302-41.545246-59.427765v-689.831716H64.84671c-18.243782 0-29.98483-14.992415-29.98483-29.98483 0-18.243782 12.102311-29.98483 29.98483-29.98483h891.777739c18.243782 0 29.98483 12.102311 29.98483 29.98483-0.180632 18.243782-12.282942 29.98483-29.98483 29.98483z m-89.231964 333.265126v-333.265126H629.862057V460.316811l237.530428-153.898042zM153.536779 662.985359l415.994355 124.81637v-814.648086H153.536779V662.985359zM450.856236 570.863292H272.753572c-18.243782 0-29.98483-11.741048-29.98483-29.98483 0-18.243782 12.102311-29.98483 29.98483-29.98483h178.102664c18.243782 0 29.98483 11.741048 29.984829 29.98483 0 18.424413-12.282942 29.98483-29.984829 29.98483zM450.856236 392.941259H272.753572c-18.243782 0-29.98483-12.102311-29.98483-29.984829v-0.361263c0-18.243782 12.102311-29.98483 29.98483-29.98483h178.102664c18.243782 0 29.98483 12.102311 29.984829 29.98483v0.180631 0.180632c0 18.243782-12.282942 29.98483-29.984829 29.984829zM450.856236 214.296701H272.753572c-18.243782 0-29.98483-11.741048-29.98483-29.984829v-0.361263c0-18.243782 12.102311-29.98483 29.98483-29.98483h178.102664c18.243782 0 29.98483 11.741048 29.984829 29.98483v0.180631 0.180632c0 18.243782-12.282942 29.98483-29.984829 29.984829zM688.747927 183.950609c0-18.243782 12.102311-29.98483 29.98483-29.98483h59.427765c18.243782 0 29.98483 11.741048 29.98483 29.98483v0.180631 0.180632c0 18.243782-12.102311 29.98483-29.98483 29.984829h-59.427765c-18.243782 0-29.98483-11.741048-29.98483-29.984829v-0.361263z"  horiz-adv-x="1024" />

    
    <glyph glyph-name="gongsixinxi" unicode="&#59009;" d="M879.494796 615.11801c0 0.903158-0.180632 1.625684-0.361263 2.34821l-0.541894 2.167578s0 0.180632-0.180632 0.180631c-0.180632 0.541895-0.361263 1.264421-0.722526 1.806315 0 0.180632-0.180632 0.361263-0.180631 0.541895-0.180632 0.541895-0.541895 1.083789-0.722526 1.445052-0.180632 0.180632-0.180632 0.361263-0.361263 0.722526s-0.541895 0.903158-0.722526 1.264421c-0.180632 0.180632-0.361263 0.541895-0.541895 0.722526-0.180632 0.361263-0.541895 0.722526-0.903157 1.083789-0.180632 0.180632-0.361263 0.541895-0.722526 0.722526-0.361263 0.361263-0.541895 0.722526-0.903158 0.903157l-0.361263 0.361263L654.427941 830.430764c-0.180632 0.180632-0.361263 0.180632-0.541894 0.361263-0.180632 0.180632-0.541895 0.541895-0.903158 0.722526-0.361263 0.180632-0.541895 0.361263-0.903157 0.722526-0.361263 0.180632-0.541895 0.361263-0.903158 0.541894-0.361263 0.180632-0.541895 0.361263-0.903157 0.541895l-1.083789 0.541894c-0.361263 0.180632-0.541895 0.361263-0.903158 0.361263l-1.083789 0.541895c-0.361263 0.180632-0.541895 0.180632-0.903157 0.361263s-0.722526 0.361263-1.264421 0.361263c-0.361263 0-0.541895 0.180632-0.903157 0.180631-0.361263 0.180632-0.722526 0.180632-1.083789 0.361263-0.361263 0-0.722526 0.180632-1.083789 0.180632-0.361263 0-0.722526 0.180632-0.903158 0.180631-0.722526 0-1.445052 0.180632-2.167578 0.180632H265.528312c-66.833657 0-121.023108-54.370083-121.023108-121.023108v-662.917622c0-66.833657 54.370083-121.023108 121.023108-121.023108h493.124008c66.833657 0 121.023108 54.370083 121.023108 121.023108V612.769801c0 0.722526-0.180632 1.625684-0.180632 2.348209zM661.653202 762.332687l137.641206-126.983948h-61.595343c-41.906509 0-75.865232 34.139354-75.865232 75.865232V762.332687z m96.818486-785.747046H265.528312c-41.906509 0-75.865232 34.139354-75.865232 75.865232V715.368495c0 41.906509 34.139354 75.865232 75.865232 75.865232h350.967013v-80.019756c0-66.833657 54.370083-121.023108 121.023109-121.023108H834.517552v-537.559358c0-41.906509-34.139354-76.045863-76.045864-76.045864zM704.462868 143.127889H317.911448c-11.199153 0-24.02399-6.863997-24.02399-20.411361 0-11.379785 9.934733-20.41136 24.02399-20.41136h392.51226c15.895572 0 18.243782 7.586523 18.243782 20.41136-0.180632 12.463574-5.238314 20.41136-24.204622 20.411361zM704.462868 284.020462H404.61457c-11.199153 0-24.02399-6.863997-24.02399-20.41136 0-11.379785 9.934733-20.41136 24.02399-20.41136h305.809138c15.895572 0 18.243782 7.586523 18.243782 20.41136-0.180632 12.463574-5.238314 20.41136-24.204622 20.41136zM704.462868 417.687776h-155.343094c-11.199153 0-24.02399-6.863997-24.02399-20.41136 0-11.379785 9.934733-20.41136 24.02399-20.41136h161.303934c15.895572 0 18.243782 7.586523 18.243782 20.41136-0.180632 12.463574-5.238314 20.41136-24.204622 20.41136zM338.142177 456.342918h96.637855c23.662727 0 44.796613 13.366731 55.092609 34.681249 10.115364 20.953255 7.586523 45.338508-6.863998 63.582289-10.295996 13.005468-22.940201 23.662727-37.210089 31.429882 11.741048 13.727994 18.785676 31.429882 18.785676 50.757453 0 43.17093-35.042512 78.213442-78.213442 78.213441s-78.213442-35.042512-78.213441-78.213441c0-19.327571 7.044629-37.21009 18.785676-50.757453-13.547363-7.586523-25.830305-17.521256-35.945669-29.98483-15.173046-18.424413-18.243782-43.351561-7.947786-64.84671 10.295996-21.495149 31.429882-34.86188 55.092609-34.86188zM386.55142 671.655671c19.146939 0 34.86188-15.714941 34.86188-34.86188 0-19.146939-15.714941-34.86188-34.86188-34.861881s-34.86188 15.714941-34.86188 34.861881c0 19.146939 15.534309 34.86188 34.86188 34.86188z m-61.956606-143.240783c15.173046 18.605045 37.751984 29.262304 61.775974 29.262304 24.565885 0 47.325454-11.018522 62.679133-30.346093 5.780208-7.405892 3.251367-14.811783 1.806315-17.701887-1.083789-2.34821-5.780208-10.115364-16.076204-10.115365h-96.637855c-9.934733 0-14.45052 7.044629-15.895573 9.934733-1.083789 2.528841-4.154525 11.018522 2.34821 18.966308z"  horiz-adv-x="1024" />

    
    <glyph glyph-name="fabudezhiwei" unicode="&#59010;" d="M646.299524 324.481919c-8.489681 6.322103-20.591992 4.696419-27.275357-3.61263L438.031399 96.52496c-7.22526-8.850944-5.418945-21.856412 3.793261-28.539777 8.489681-6.322103 20.591992-4.696419 27.275358 3.61263L650.273417 295.942141c6.863997 8.850944 5.238314 21.856412-3.973893 28.539778zM598.612806 501.139531c-8.489681 6.322103-20.591992 4.696419-27.275357-3.61263L390.344682 273.363203c-7.22526-8.850944-5.418945-21.856412 3.793261-28.539777 8.489681-6.322103 20.591992-4.696419 27.275357 3.61263l181.1734 224.344329c6.863997 8.670312 5.238314 21.675781-3.973894 28.359146zM859.264068 77.739284l-118.133004 518.412418c-1.986947 9.031575-10.115364 15.534309-19.508203 15.53431l-207.003704-0.722526c-0.361263 10.657259-1.625684 21.133886-3.973893 31.24925l207.003704-0.361263c8.850944 0 16.618098 5.780208 19.14694 14.089257l43.170929 143.421415c3.793262 12.282942 1.264421 25.288411-6.863997 35.584406-8.128418 10.295996-20.591992 16.256835-34.139354 16.256836l-409.672253 0.541894c-13.366731 0-25.830305-5.780208-33.958723-15.895572-8.128418-10.295996-10.83789-23.120833-7.405892-35.223143l7.044629-25.10778c-75.865232-19.508203-132.222261-88.509437-132.222261-170.51614 0-82.367966 56.898924-151.549832 133.30605-170.696772l-67.917446-355.121538c-1.625684-9.031575 2.890104-17.882519 11.199154-21.856412l302.377139-139.447522c5.418945-2.528841 11.560416-2.34821 16.798729 0l289.732934 137.460575c8.670312 3.973893 13.1861 13.1861 11.018522 22.398307zM327.123655 810.200035v0.541895c0 0.722526 0.180632 1.264421 0.722526 1.625683 0.361263 0.361263 0.903158 0.541895 1.625684 0.541895l409.310989-0.361263c0.180632 0 0.903158 0 1.625684-0.541895 0.541895-0.541895 0.722526-1.083789 0.722526-1.625683L706.269183 694.595872c-2.528841-8.489681-10.295996-14.089257-19.146939-14.089257l-189.482449 0.361263c0.361263-0.903158 0.722526-1.806315 1.264421-2.709473-27.817252 60.692186-89.051332 102.959958-160.039513 102.959958h-3.251367l-8.489681 29.081672z m-128.248368-205.378021c0 77.129652 62.679132 139.808785 139.808784 139.808785s139.808785-62.679132 139.808785-139.808785-62.679132-139.808785-139.808785-139.808784-139.808785 62.679132-139.808784 139.808784z m351.870171-646.480155l-0.722526-0.361263-264.986418 119.578056c-8.309049 3.793262-13.005468 12.824837-11.379784 21.856412l62.859763 329.471865h2.167578c85.980596 0 157.691304 61.956606 173.044982 143.602046l177.199506 0.541895c9.392838 0 17.340624-6.322103 19.508202-15.53431l108.198272-474.699594 0.361263-1.445052-266.250838-123.010055zM356.747222 545.936144v41.003352h41.003351c9.934733 0 18.06315 8.128418 18.063151 18.06315s-8.128418 18.06315-18.063151 18.06315h-41.003351v41.003352c0 9.934733-8.128418 18.06315-18.063151 18.06315s-18.06315-8.128418-18.06315-18.06315v-41.003352h-41.003352c-9.934733 0-18.06315-8.128418-18.06315-18.06315s8.128418-18.06315 18.06315-18.06315h41.003352v-41.003352c0-9.934733 8.128418-18.06315 18.06315-18.063151s18.06315 7.947786 18.063151 18.063151z"  horiz-adv-x="1024" />

    
    <glyph glyph-name="toudilishi" unicode="&#59011;" d="M333.987652 605.905803h127.345211c12.463574 0 22.578938 10.115364 22.578938 22.578939s-10.115364 22.578938-22.578938 22.578938h-104.766273V739.211854c0 12.463574-10.115364 22.578938-22.578938 22.578938s-22.578938-10.115364-22.578938-22.578938v-110.727112c0.180632-12.463574 10.295996-22.578938 22.578938-22.578939zM851.316282 773.170577H488.969483c-38.835774 41.364615-93.928382 67.375551-154.981831 67.375551-117.049215 0-212.242018-95.192803-212.242018-212.242018 0-72.433233 36.487564-136.376786 91.941436-174.670665v-474.518963c0-27.997883 22.398307-50.757453 50.034927-50.757453h587.413653c27.63662 0 50.034927 22.75957 50.034927 50.757453V722.413124C901.351208 750.411007 878.952902 773.170577 851.316282 773.170577z m-684.593403-144.866467c0 92.302699 74.962074 167.264773 167.264773 167.264773 92.302699 0 167.264773-74.962074 167.264773-167.264773 0-92.302699-74.962074-167.264773-167.264773-167.264773-92.122067 0-167.264773 75.142706-167.264773 167.264773z m688.206033-649.189628c0-2.34821-1.625684-4.335156-3.61263-4.335156H263.721997c-1.986947 0-3.61263 1.986947-3.61263 4.335156V429.428823c22.940201-8.489681 47.867349-13.1861 73.878285-13.186099 117.049215 0 212.242018 95.192803 212.242018 212.242018 0 35.403775-8.670312 69.001235-24.204621 98.263538h329.291233c1.986947 0 3.61263-1.986947 3.61263-4.335156v-743.298642zM585.78797 474.947963h174.851296c12.463574 0 22.578938 10.115364 22.578938 22.578938s-10.115364 22.578938-22.578938 22.578938h-174.851296c-12.463574 0-22.578938-10.115364-22.578938-22.578938 0-12.644205 10.115364-22.578938 22.578938-22.578938zM761.000529 349.047804H396.666784c-12.463574 0-22.578938-10.115364-22.578938-22.578938s10.115364-22.578938 22.578938-22.578938h364.153114c12.463574 0 22.578938 10.115364 22.578938 22.578938s-9.934733 22.578938-22.398307 22.578938zM761.000529 172.390192H396.666784c-12.463574 0-22.578938-10.115364-22.578938-22.578938s10.115364-22.578938 22.578938-22.578938h364.153114c12.463574 0 22.578938 10.115364 22.578938 22.578938s-9.934733 22.578938-22.398307 22.578938z"  horiz-adv-x="1024" />

    
    <glyph glyph-name="wodejianli" unicode="&#59012;" d="M879.494796 615.11801c0 0.903158-0.180632 1.625684-0.361263 2.34821l-0.541894 2.167578s0 0.180632-0.180632 0.180631c-0.180632 0.541895-0.361263 1.264421-0.722526 1.806315 0 0.180632-0.180632 0.361263-0.180631 0.541895-0.180632 0.541895-0.541895 1.083789-0.722526 1.445052-0.180632 0.180632-0.180632 0.361263-0.361263 0.722526s-0.541895 0.903158-0.722526 1.264421c-0.180632 0.180632-0.361263 0.541895-0.541895 0.722526-0.180632 0.361263-0.541895 0.722526-0.903157 1.083789-0.180632 0.180632-0.361263 0.541895-0.722526 0.722526-0.361263 0.361263-0.541895 0.722526-0.903158 0.903157l-0.361263 0.361263L654.427941 830.430764c-0.180632 0.180632-0.361263 0.180632-0.541894 0.361263-0.180632 0.180632-0.541895 0.541895-0.903158 0.722526-0.361263 0.180632-0.541895 0.361263-0.903157 0.722526-0.361263 0.180632-0.541895 0.361263-0.903158 0.541894-0.361263 0.180632-0.541895 0.361263-0.903157 0.541895l-1.083789 0.541894c-0.361263 0.180632-0.541895 0.361263-0.903158 0.361263l-1.083789 0.541895c-0.361263 0.180632-0.541895 0.180632-0.903157 0.361263s-0.722526 0.361263-1.264421 0.361263c-0.361263 0-0.541895 0.180632-0.903157 0.180631-0.361263 0.180632-0.722526 0.180632-1.083789 0.361263-0.361263 0-0.722526 0.180632-1.083789 0.180632-0.361263 0-0.722526 0.180632-0.903158 0.180631-0.722526 0-1.445052 0.180632-2.167578 0.180632H265.528312c-66.833657 0-121.023108-54.370083-121.023108-121.023108v-662.917622c0-66.833657 54.370083-121.023108 121.023108-121.023108h493.124008c66.833657 0 121.023108 54.370083 121.023108 121.023108V612.769801c0 0.722526-0.180632 1.625684-0.180632 2.348209zM661.653202 762.332687l137.641206-126.983948h-61.595343c-41.906509 0-75.865232 34.139354-75.865232 75.865232V762.332687z m96.818486-785.747046H265.528312c-41.906509 0-75.865232 34.139354-75.865232 75.865232V715.368495c0 41.906509 34.139354 75.865232 75.865232 75.865232h350.967013v-80.019756c0-66.833657 54.370083-121.023108 121.023109-121.023108H834.517552v-537.559358c0-41.906509-34.139354-76.045863-76.045864-76.045864zM704.462868 143.127889H317.911448c-11.199153 0-24.02399-6.863997-24.02399-20.411361 0-11.379785 9.934733-20.41136 24.02399-20.41136h392.51226c15.895572 0 18.243782 7.586523 18.243782 20.41136-0.180632 12.463574-5.238314 20.41136-24.204622 20.411361zM704.462868 284.020462H404.61457c-11.199153 0-24.02399-6.863997-24.02399-20.41136 0-11.379785 9.934733-20.41136 24.02399-20.41136h305.809138c15.895572 0 18.243782 7.586523 18.243782 20.41136-0.180632 12.463574-5.238314 20.41136-24.204622 20.41136zM704.462868 417.687776h-155.343094c-11.199153 0-24.02399-6.863997-24.02399-20.41136 0-11.379785 9.934733-20.41136 24.02399-20.41136h161.303934c15.895572 0 18.243782 7.586523 18.243782 20.41136-0.180632 12.463574-5.238314 20.41136-24.204622 20.41136zM338.142177 456.342918h96.637855c23.662727 0 44.796613 13.366731 55.092609 34.681249 10.115364 20.953255 7.586523 45.338508-6.863998 63.582289-10.295996 13.005468-22.940201 23.662727-37.210089 31.429882 11.741048 13.727994 18.785676 31.429882 18.785676 50.757453 0 43.17093-35.042512 78.213442-78.213442 78.213441s-78.213442-35.042512-78.213441-78.213441c0-19.327571 7.044629-37.21009 18.785676-50.757453-13.547363-7.586523-25.830305-17.521256-35.945669-29.98483-15.173046-18.424413-18.243782-43.351561-7.947786-64.84671 10.295996-21.495149 31.429882-34.86188 55.092609-34.86188zM386.55142 671.655671c19.146939 0 34.86188-15.714941 34.86188-34.86188 0-19.146939-15.714941-34.86188-34.86188-34.861881s-34.86188 15.714941-34.86188 34.861881c0 19.146939 15.534309 34.86188 34.86188 34.86188z m-61.956606-143.240783c15.173046 18.605045 37.751984 29.262304 61.775974 29.262304 24.565885 0 47.325454-11.018522 62.679133-30.346093 5.780208-7.405892 3.251367-14.811783 1.806315-17.701887-1.083789-2.34821-5.780208-10.115364-16.076204-10.115365h-96.637855c-9.934733 0-14.45052 7.044629-15.895573 9.934733-1.083789 2.528841-4.154525 11.018522 2.34821 18.966308z"  horiz-adv-x="1024" />

    
    <glyph glyph-name="gongsixinxi1" unicode="&#59013;" d="M491.498324 565.986241H248.910213c-13.908626 0-25.107779-11.199153-25.107779-25.107779s11.199153-25.107779 25.107779-25.107779h242.588111c13.908626 0 25.107779 11.199153 25.107779 25.107779 0 13.727994-11.199153 25.107779-25.107779 25.107779zM491.498324 382.645264H248.910213c-13.908626 0-25.107779-11.199153-25.107779-25.107779s11.199153-25.107779 25.107779-25.10778h242.588111c13.908626 0 25.107779 11.199153 25.107779 25.10778 0 13.727994-11.199153 25.107779-25.107779 25.107779zM491.498324 198.762392H248.910213c-13.908626 0-25.107779-11.199153-25.107779-25.107779s11.199153-25.107779 25.107779-25.107779h242.588111c13.908626 0 25.107779 11.199153 25.107779 25.107779s-11.199153 25.107779-25.107779 25.107779zM794.778621 198.762392h-61.053449c-13.908626 0-25.107779-11.199153-25.107779-25.107779s11.199153-25.107779 25.107779-25.107779H794.778621c13.908626 0 25.107779 11.199153 25.107779 25.107779S808.506615 198.762392 794.778621 198.762392zM960.056447-5.712471h-35.403775V258.912683c0 43.17093-22.940201 83.99365-59.608396 106.391956l-209.532546 128.067737V699.11166c0 39.197037-17.882519 75.503969-49.131769 99.166696-31.24925 23.843359-70.80755 31.429882-108.740166 20.953255L190.566237 726.206386C136.918681 711.213971 99.347328 661.90157 99.347328 606.086435v-611.798906H63.943553c-13.908626 0-25.107779-11.199153-25.107779-25.107779S50.034927-55.92803 63.943553-55.92803h895.932263c13.908626 0 25.107779 11.199153 25.107779 25.10778s-11.199153 25.107779-24.927148 25.107779z m-354.760275 0H149.562886V606.086435c0 33.416828 22.578938 63.040395 54.731346 71.891339L511.187158 771.002999c22.578938 6.141471 46.061034 1.625684 64.666079-12.644206C594.458282 744.269536 605.296172 722.593756 605.296172 699.11166v-704.824131z m269.140942 0H655.331099V434.667137l183.340977-111.991533c22.037044-13.366731 35.584406-37.751984 35.584407-63.582289v-264.805786z"  horiz-adv-x="1024" />

    
    <glyph glyph-name="sousuo" unicode="&#59015;" d="M814.865261 126.381508l142.674667-148.942455c24.906214-24.741272 24.906214-68.28591 0-93.027182l6.267789 6.267789c-24.906214-24.906214-62.018121-24.906214-86.924335 0l-148.942455 155.210245c-74.388757-49.647485-167.58088-80.656546-260.608062-80.656546-254.505215-0.164942-465.465791 210.795635-465.465791 465.30085C1.867074 684.874482 206.724803 896 461.065076 896c254.505215 0 465.465791-211.125518 465.465792-465.465791 0-117.933395-43.379696-223.496154-111.665607-304.152701zM467.332865 58.095599C672.025653 58.095599 839.606533 225.676479 839.606533 430.534209 839.606533 635.391938 672.025653 802.972818 467.167923 802.972818 262.310194 802.972818 94.729313 635.391938 94.729313 430.534209 94.894255 225.676479 262.475135 58.095599 467.332865 58.095599z m0 0"  horiz-adv-x="1067" />

    
    <glyph glyph-name="fabuketang" unicode="&#59016;" d="M563.293122 894.753044H78.102669c-28.181198 0-51.125183-22.819289-51.125182-51.125182v-919.380419c0-28.181198 22.819289-51.125183 51.125182-51.125183h715.004384c13.591817 0 26.560156 5.361909 36.161715 14.963468 9.601559 9.601559 14.963468 22.569898 14.963468 36.161715v689.566488L563.293122 894.753044z m0-75.066731L769.2902 613.813931H563.293122V819.686313z m229.813931-895.43887H78.102669V843.627862h434.189966V613.813931c0-13.591817 5.361909-26.560156 14.963468-36.161715 9.601559-9.601559 22.569898-14.963468 36.161715-14.963468h229.813931v-638.441305zM364.653083 533.38529c-4.863127-4.738432-7.481734-11.222601-7.481734-18.080857 0-6.733561 2.743302-13.21773 7.481734-18.080858l135.169996-135.169995H256.791418c-14.090599 0-25.562591-11.471992-25.562592-25.562591s11.471992-25.562591 25.562592-25.562592h246.647832L364.653083 172.142231c-9.975645-9.975645-9.975645-26.186069 0-36.161715s26.186069-9.975645 36.161715 0l180.559182 180.559182c4.738432 4.738432 7.481734 11.222601 7.481734 18.080857 0 6.733561-2.743302 13.21773-7.481734 18.080858L400.690102 533.38529c-4.738432 4.738432-11.222601 7.481734-18.080857 7.481734-6.733561 0-13.21773-2.743302-17.956162-7.481734z m0 0M793.107053-128H78.102669c-28.804676 0-52.372138 23.442767-52.372138 52.372138V843.627862c0 28.804676 23.442767 52.372138 52.372138 52.372138h485.689236L845.479192 614.312713v-690.06527c0-13.965904-5.486605-27.058938-15.337555-37.034584-9.975645-9.85095-23.06868-15.212859-37.034584-15.212859zM78.102669 893.506089c-27.433025 0-49.878227-22.320507-49.878227-49.878227v-919.380419c0-27.433025 22.320507-49.878227 49.878227-49.878227h715.004384c13.342426 0 25.811982 5.237214 35.288846 14.589381 9.352168 9.352168 14.589381 21.94642 14.589381 35.288846V613.315149L562.79434 893.506089H78.102669z m716.25134-970.505602H76.855714V844.874817h436.683877V613.813931c0-13.342426 5.237214-25.811982 14.589381-35.288846 9.352168-9.352168 21.94642-14.589381 35.288846-14.589381h231.060887v-640.935217z m-715.004384 2.493911h712.510473v635.947394H563.293122c-13.965904 0-27.058938 5.486605-37.034583 15.337555-9.85095 9.85095-15.337555 23.06868-15.337555 37.034584V842.380906H79.349625v-916.886508z m303.25962 201.882124c-7.107647 0-13.841208 2.743302-18.953726 7.855821s-7.855821 11.721383-7.855821 18.953726c0 7.107647 2.743302 13.841208 7.855821 18.953726L500.446556 309.806137H256.791418c-14.714077 0-26.809547 11.970774-26.809547 26.809547s11.970774 26.809547 26.809547 26.809547h240.038967L363.780215 496.350706c-4.987823 4.987823-7.855821 11.846079-7.855821 18.953727 0 7.107647 2.867998 13.965904 7.855821 18.953726 5.112518 4.987823 11.721383 7.855821 18.953726 7.855821 7.107647 0 13.841208-2.743302 18.953726-7.855821l180.559182-180.559182c5.112518-5.112518 7.855821-11.846079 7.85582-18.953726 0-7.107647-2.743302-13.841208-7.85582-18.953726L401.562971 135.232343c-4.987823-5.112518-11.721383-7.855821-18.953726-7.855821zM256.791418 360.806624c-13.342426 0-24.315636-10.848514-24.315636-24.315635s10.848514-24.315636 24.315636-24.315636h249.640526l-140.905992-140.905991c-4.613736-4.613736-7.107647-10.723819-7.107647-17.207988 0-6.48417 2.493911-12.594252 7.107647-17.207989 4.613736-4.613736 10.723819-7.107647 17.207989-7.107647s12.594252 2.493911 17.207988 7.107647l180.559182 180.559182c4.613736 4.613736 7.107647 10.723819 7.107647 17.207988 0 6.48417-2.493911 12.594252-7.107647 17.207989L399.817234 532.512421c-4.613736 4.613736-10.723819 7.107647-17.207989 7.107647-6.48417 0-12.594252-2.493911-17.207988-7.107647-4.48904-4.48904-7.107647-10.723819-7.107647-17.207988 0-6.359474 2.618607-12.718948 7.107647-17.207989l137.28982-137.28982H256.791418z m515.491476 251.760351H562.046167V822.803702l210.236727-210.236727z m-207.742816 2.493912h201.757428L564.540078 816.693619V615.060887z"  horiz-adv-x="1187" />

    
    <glyph glyph-name="ketang" unicode="&#59017;" d="M1059.867862 552.131236c-4.370002 5.959094-9.799399 11.38849-15.758493 15.758492L605.387643 880.940787c-26.087588 19.466373-61.312454 20.128495-87.267617 1.589092L83.635878 585.767009c-17.347584-11.918188-28.736074-30.325166-32.57638-50.983357-3.840305-20.658192 0.529697-41.713656 12.977582-59.061241 4.899699-7.548185 11.918188-14.036976 19.466373-19.466373l478.978715-321.658639 346.024712 232.669505v-192.54494c-5.959094-14.699098-18.406979-26.087588-34.165471-31.516985l-4.370002-1.589092-275.972254-200.755248c-9.799399-7.018488-21.717586-10.858793-33.106076-10.858793-11.38849 0-22.247283 3.310608-32.046682 9.799399L200.169267 163.86317c-15.758492 11.38849-24.89577 29.265772-24.895769 48.334872v14.699098c0 4.899699 2.118789 9.269701 7.018488 11.918188 4.370002 2.648486 8.740004 2.118789 12.447884 0l350.924411-239.158297c12.977582-9.269701 30.854863-5.429397 40.124565 7.548185s5.429397 30.854863-7.548185 40.124565L226.786553 286.355653c-22.247283 14.699098-50.453661 15.758492-73.230642 2.648487C130.249233 276.158982 116.079833 251.660485 116.60953 225.175624v-12.977582c0-38.005776 18.406979-73.760338 49.394266-95.477925l330.266219-224.591622c19.466373-12.977582 41.713656-20.128495 64.490637-20.128495 23.836375 0 46.613356 7.548185 66.74185 20.658192l269.615887 196.385246c32.046682 12.447885 56.942452 38.535473 67.271548 70.44973l1.589092 4.370002V404.080861l76.541248 50.453661 0.529698 0.529697c15.228795 10.329096 25.557891 26.087588 28.736074 44.494567 3.310608 18.406979-1.059394 37.476079-11.918187 52.57245z m-45.024264-42.243354c-0.529697-1.589092-1.589092-4.370002-4.370003-6.488791l-83.030039-54.823663c-2.118789-0.529697-4.370002-1.589092-6.488791-3.310607L562.482168 204.517432 116.60953 503.399091c-2.118789 1.589092-3.840305 3.310608-5.429397 5.429397-3.310608 4.370002-4.370002 10.329096-3.310607 15.758492 1.059394 5.429397 4.370002 10.329096 8.740004 13.507279L550.563981 835.386826c6.488791 4.370002 14.036976 3.840305 20.128494-0.529697l439.913545-314.110454 2.118789-2.118789c2.78091-3.840305 2.78091-7.150913 2.118789-8.740004zM739.401041 566.300636L531.627305 714.35101c-9.799399 7.018488-23.306678 0.529697-23.306678-11.38849v-296.76287c0-11.918188 13.507279-18.936676 23.306678-11.918187l207.773736 148.050374c8.077883 6.091518 8.077883 18.009706 0 23.968799z"  horiz-adv-x="1395" />

    
    <glyph glyph-name="liulanjilu" unicode="&#59018;" d="M739.324749 891.122949c-408.046569 0-739.324749-490.775798-739.324749-509.200211 0-17.340624 331.097548-508.116423 739.324749-508.116423 409.130358 0 735.170224 512.812842 740.408537 508.116423C1484.9716 378.490739 1148.455107 891.122949 739.324749 891.122949z m0-863.23796c-351.328277 0-548.397248 354.037749-548.397249 354.037749S433.33498 736.863644 739.324749 736.863644c306.892926 0 553.093667-357.650379 549.119774-354.940906-3.973893 3.793262-242.226848-354.037749-549.119774-354.037749z m-3.431999 622.817428c-133.486682 0-241.32369-116.146058-241.32369-260.651262 0-143.602046 108.01764-260.651261 241.32369-260.651261 134.209208 0 242.226848 117.049215 242.226848 260.651261 0 144.505204-107.837008 260.651261-242.226848 260.651262z m0 0"  horiz-adv-x="1480" />

    
    <glyph glyph-name="paixu-shang-copy" unicode="&#59400;" d="M545.20232799 655.398836L1087.99999999 112.60116400000004l-1085.595343 0z"  horiz-adv-x="1085" />

    
    <glyph glyph-name="paixu-xia-copy" unicode="&#59401;" d="M542.797672 112.60116400000004L0 655.398836h1085.595343z"  horiz-adv-x="1085" />

    
    <glyph glyph-name="bofang" unicode="&#59014;" d="M401.291675 216.105045c-23.530062 0-40.514167 18.9302-40.514167 44.937111V507.134762c0 26.006911 16.984105 44.937111 40.514167 44.937111 8.315135 0 16.63027-2.476849 24.945404-7.076711l213.185902-123.134761c15.214927-8.845888 24.060815-22.645473 24.060815-37.683483 0-15.214927-8.845888-29.014513-24.060815-37.860401l-213.185902-123.134762c-8.315135-4.77678-16.63027-7.07671-24.945404-7.07671z m0 0M512.219111-128c-136.757429 0-265.376641 53.252246-361.973739 150.026261C53.471357 118.800276 0.219111 247.242571 0.219111 384s53.252246 265.376641 150.026261 361.973739C246.84247 842.747754 375.461682 896 512.219111 896s265.376641-53.252246 361.973739-150.026261c96.774015-96.774015 150.026261-225.21631 150.026261-361.973739s-53.252246-265.376641-150.026261-361.973739c-96.774015-96.774015-225.21631-150.026261-361.973739-150.026261z m0 1006.308224C239.588841 878.308224 17.910887 656.63027 17.910887 384c0-272.63027 221.677954-494.308224 494.308224-494.308224 272.63027 0 494.308224 221.677954 494.308224 494.308224 0 272.63027-221.854872 494.308224-494.308224 494.308224z"  horiz-adv-x="1045" />

    


  </font>
</defs>
</svg>
